<svg width="120" height="120" viewBox="0 0 120 120" fill="none" xmlns="http://www.w3.org/2000/svg">
    <rect x="24" y="24" width="72" height="72" rx="12" stroke="#2D964B" stroke-width="4"/>
    <circle cx="60" cy="96" r="12" fill="url(#paint0_linear_429_205)"/>
    <path d="M53.1167 95.8019C52.8874 95.531 52.9041 95.1295 53.1551 94.8785L53.6762 94.3573C53.9428 94.0908 54.3749 94.0908 54.6414 94.3573L57.9063 97.6222C57.97 97.6859 58.0723 97.6891 58.1398 97.6295L65.7431 90.9207C66.0133 90.6823 66.4224 90.6951 66.6772 90.9499L66.8449 91.1175C67.1044 91.377 67.1122 91.7953 66.8626 92.0643L58.5435 101.032C58.265 101.332 57.7866 101.321 57.5221 101.008L53.1167 95.8019Z"
          fill="white"/>
    <defs>
        <linearGradient id="paint0_linear_429_205" x1="60" y1="84" x2="60" y2="108" gradientUnits="userSpaceOnUse">
            <stop stop-color="#35A15A"/>
            <stop offset="1" stop-color="#24893A"/>
        </linearGradient>
    </defs>
</svg>
