<svg width="20" height="20" viewBox="0 0 20 20" fill="none" xmlns="http://www.w3.org/2000/svg">
<path fill-rule="evenodd" clip-rule="evenodd" d="M10.0001 0C4.4773 0 -0.000793457 4.59086 -0.000793457 10.2542C-0.000793457 14.7846 2.86492 18.6283 6.83824 19.9842C7.33825 20.0793 7.52187 19.7618 7.52187 19.4911C7.52187 19.2466 7.5126 18.4387 7.5081 17.5818C4.72585 18.2022 4.13893 16.3721 4.13893 16.3721C3.68383 15.187 3.02841 14.8717 3.02841 14.8717C2.12087 14.2353 3.09678 14.2482 3.09678 14.2482C4.10103 14.3207 4.62966 15.305 4.62966 15.305C5.52184 16.8727 6.9694 16.4195 7.54016 16.1575C7.62998 15.4948 7.889 15.0422 8.17504 14.7862C5.95375 14.5273 3.61878 13.6479 3.61878 9.71871C3.61878 8.59935 4.00935 7.68444 4.649 6.9665C4.54527 6.70813 4.20292 5.66511 4.74612 4.25274C4.74612 4.25274 5.58583 3.97698 7.49657 5.30377C8.29454 5.07664 9.15002 4.9628 9.99993 4.95872C10.8498 4.9628 11.7061 5.07664 12.5053 5.30377C14.4142 3.97711 15.2528 4.2526 15.2528 4.2526C15.7971 5.66484 15.4549 6.70785 15.3509 6.96609C15.9921 7.68417 16.38 8.59894 16.38 9.7183C16.38 13.6571 14.0405 14.5241 11.8137 14.778C12.1723 15.0964 12.492 15.7203 12.492 16.6771C12.492 18.0491 12.4806 19.1535 12.4806 19.4911C12.4806 19.7641 12.6604 20.0836 13.1673 19.9831C17.1393 18.6257 20.001 14.7834 20.001 10.2543C20.0009 4.59086 15.5234 0 10.0001 0Z" fill="#363870"/>
<path d="M3.78814 14.7221C3.76601 14.7732 3.68785 14.7887 3.6167 14.7533C3.54383 14.7199 3.50342 14.6504 3.52687 14.5993C3.54847 14.547 3.62664 14.5325 3.69911 14.5674C3.77171 14.6009 3.81305 14.671 3.78814 14.7221ZM4.1921 15.1856C4.1444 15.231 4.051 15.2101 3.98807 15.1383C3.92235 15.0667 3.9103 14.971 3.95865 14.9251C4.00768 14.8798 4.0983 14.901 4.16362 14.9726C4.2292 15.0449 4.24205 15.1397 4.1921 15.1856ZM4.58639 15.7765C4.52505 15.8204 4.42475 15.7795 4.36275 15.6882C4.30141 15.597 4.3014 15.4876 4.36407 15.4437C4.42634 15.4 4.52505 15.4396 4.58798 15.5298C4.64893 15.6226 4.64893 15.7318 4.58639 15.7765ZM5.12788 16.3472C5.07302 16.4092 4.9563 16.3925 4.87085 16.3078C4.7834 16.2252 4.75902 16.1079 4.81387 16.0459C4.86952 15.9838 4.98691 16.0011 5.07302 16.0853C5.15981 16.1676 5.18617 16.2858 5.12788 16.3472ZM5.87313 16.6783C5.84875 16.7584 5.73667 16.7951 5.62325 16.7607C5.50998 16.7257 5.43591 16.6317 5.45897 16.5506C5.48229 16.4698 5.59543 16.4317 5.70937 16.4683C5.82239 16.5032 5.89671 16.5966 5.87313 16.6783ZM6.69125 16.7394C6.6939 16.8241 6.59798 16.8943 6.47927 16.8956C6.3595 16.8984 6.26265 16.8299 6.26132 16.7468C6.26132 16.6612 6.35539 16.5919 6.47463 16.5899C6.59387 16.5871 6.69125 16.6555 6.69125 16.7393M7.45307 16.607C7.46725 16.6893 7.38471 16.7741 7.26652 16.7966C7.15046 16.8186 7.04301 16.7675 7.02831 16.6859C7.01373 16.6013 7.09786 16.5166 7.21379 16.4948C7.33211 16.4736 7.43797 16.5232 7.45307 16.607Z" fill="#363870"/>
</svg>
