<?xml version="1.0" encoding="UTF-8"?>
<svg xmlns="http://www.w3.org/2000/svg" width="32" height="32.0" viewBox="-5.999039616631952E-32 0.0 32 32.0" preserveAspectRatio="none">
  <g>
    <defs>
      <path id="s-Path_1-d1224" d="M8.0 0.0 L24.0 0.0 C28.388670162838906 2.6872854337170806E-16 32.0 3.611329837161093 32.0 8.0 L32.0 24.0 C32.0 28.388670162838906 28.388670162838906 32.0 24.0 32.0 L8.0 32.0 C3.611329837161093 32.0 5.374570867434161E-16 28.388670162838906 0.0 24.0 L0.0 8.0 C-5.374570867434161E-16 3.6113298371610947 3.611329837161091 8.061856301151241E-16 7.999999999999998 0.0 Z "></path>
      <path id="s-Path_2-d1224" d="M19.57710075378418 8.131230354309082 C19.221200942993164 8.487119674682617 18.610599517822266 8.595379829406738 18.25469970703125 8.239489555358887 L16.708499908447266 6.693349838256836 C16.317399978637695 6.302249908447266 15.683300018310547 6.302249908447266 15.292200088500977 6.693349838256836 L13.746100425720215 8.239489555358887 C13.390199661254883 8.595379829406738 12.779600143432617 8.487119674682617 12.423700332641602 8.131230354309082 C11.23840045928955 6.946000099182129 9.31682014465332 6.946010112762451 8.131600379943848 8.131230354309082 C6.946380138397217 9.316450119018555 6.9463701248168945 11.238100051879883 8.131600379943848 12.423299789428711 C8.487489700317383 12.779199600219727 8.595749855041504 13.389800071716309 8.239859580993652 13.745699882507324 L6.693719863891602 15.291899681091309 C6.302609920501709 15.682999610900879 6.302609920501709 16.317100524902344 6.693719863891602 16.708200454711914 L8.239850044250488 18.25429916381836 C8.59574031829834 18.610200881958008 9.206399917602539 18.50189971923828 9.56229019165039 18.146099090576172 C10.7475004196167 16.960800170898438 12.669099807739258 16.960800170898438 13.854399681091309 18.146099090576172 C15.039600372314453 19.331300735473633 15.039600372314453 21.252899169921875 13.854399681091309 22.438100814819336 C13.498499870300293 22.79400062561035 13.390199661254883 23.404699325561523 13.746100425720215 23.76059913635254 L15.292200088500977 25.306699752807617 C15.683300018310547 25.697799682617188 16.317399978637695 25.697799682617188 16.708499908447266 25.306699752807617 L18.25469970703125 23.76059913635254 C18.610599517822266 23.404699325561523 19.221200942993164 23.51289939880371 19.57710075378418 23.868799209594727 C20.762300491333008 25.054000854492188 22.68400001525879 25.054000854492188 23.869199752807617 23.868799209594727 C25.054399490356445 22.6835994720459 25.054399490356445 20.761999130249023 23.869199752807617 19.57670021057129 C23.5132999420166 19.22089958190918 23.405000686645508 18.610200881958008 23.760900497436523 18.25429916381836 L25.307100296020508 16.708200454711914 C25.698200225830078 16.317100524902344 25.698200225830078 15.682999610900879 25.307100296020508 15.291899681091309 L23.760900497436523 13.745699882507324 C23.405000686645508 13.389800071716309 23.5132999420166 12.779199600219727 23.869199752807617 12.423299789428711 C25.054399490356445 11.238100051879883 25.054399490356445 9.316459655761719 23.869199752807617 8.131230354309082 C22.68400001525879 6.946000099182129 20.762300491333008 6.946010112762451 19.57710075378418 8.131230354309082 Z "></path>
    </defs>
    <g style="mix-blend-mode:normal">
      <use xmlns:xlink="http://www.w3.org/1999/xlink" xlink:href="#s-Path_1-d1224" fill="#009950" fill-opacity="1.0"></use>
    </g>
    <g style="mix-blend-mode:normal">
      <use xmlns:xlink="http://www.w3.org/1999/xlink" xlink:href="#s-Path_2-d1224" fill="#FFFFFF" fill-opacity="1.0"></use>
    </g>
  </g>
</svg>
