<svg width="20" height="20" viewBox="0 0 20 20" fill="none" xmlns="http://www.w3.org/2000/svg">
<path d="M9.99985 3.77248C13.5039 3.77248 16.3446 6.61313 16.3446 10.1172V17.731C16.3446 18.4318 15.7765 18.9999 15.0757 18.9999H4.92404C4.22322 18.9999 3.65509 18.4318 3.65509 17.731V10.1172C3.65509 6.61313 6.49574 3.77248 9.99985 3.77248ZM9.99985 3.77248V0.600098M5.55851 15.193H14.4412M2.5 10.7517V15.8275M17.5 10.7517V15.8275M7.46194 12.6551C6.76113 12.6551 6.19299 12.087 6.19299 11.3862C6.19299 10.6854 6.76113 10.1172 7.46194 10.1172C8.16276 10.1172 8.7309 10.6854 8.7309 11.3862C8.7309 12.087 8.16276 12.6551 7.46194 12.6551ZM12.5378 12.6551C11.8369 12.6551 11.2688 12.087 11.2688 11.3862C11.2688 10.6854 11.8369 10.1172 12.5378 10.1172C13.2386 10.1172 13.8067 10.6854 13.8067 11.3862C13.8067 12.087 13.2386 12.6551 12.5378 12.6551Z" stroke="#363870" stroke-width="1.26895"/>
</svg>
