<svg width="56" height="56" viewBox="0 0 56 56" fill="none" xmlns="http://www.w3.org/2000/svg">
    <g clip-path="url(#clip0_2_1806)">
        <rect width="56" height="56" fill="#1969FF"/>
        <path d="M26.354 9.36401C27.2775 8.87866 28.6828 8.87866 29.6064 9.36401L39.0307 14.3165C39.5869 14.6088 39.8924 15.0444 39.9471 15.494H39.9561V40.3879C39.9439 40.8784 39.6355 41.3655 39.0307 41.6835L29.6064 46.636C28.6828 47.1213 27.2775 47.1213 26.354 46.636L16.9297 41.6835C16.3274 41.367 16.0384 40.8763 16.0241 40.3879C16.0226 40.3398 16.0225 40.2998 16.0238 40.2665L16.0238 15.6539C16.0228 15.627 16.0227 15.6001 16.0235 15.5732L16.0241 15.494L16.0283 15.494C16.0701 15.0394 16.3618 14.615 16.9297 14.3165L26.354 9.36401ZM38.4725 29.3822L29.6064 34.0414C28.6828 34.5268 27.2775 34.5268 26.354 34.0414L17.5072 29.3926V40.3387L26.354 44.9631C26.8535 45.2288 27.372 45.4876 27.879 45.5206L27.9802 45.5239C28.5085 45.5256 29.0214 45.2588 29.5415 45.0061L38.4725 40.2989V29.3822ZM14.4912 39.8467C14.4912 40.8003 14.6026 41.4273 14.8238 41.869C15.0072 42.2351 15.2823 42.5147 15.7846 42.8553L15.8133 42.8746C15.9235 42.9485 16.045 43.026 16.1928 43.1168L16.3671 43.2231L16.9024 43.5446L16.1346 44.8075L15.5355 44.4474L15.4348 44.3859C15.2616 44.2794 15.118 44.1882 14.9841 44.0983C13.5524 43.1379 13.0185 42.0911 13.008 39.9129L13.0078 39.8467H14.4912ZM27.2383 22.7099C27.1697 22.7334 27.1054 22.7605 27.0467 22.7913L17.6225 27.7438C17.6126 27.749 17.6032 27.7541 17.5942 27.7592L17.5862 27.7638L17.601 27.7722L17.6225 27.7838L27.0467 32.7364C27.1054 32.7672 27.1697 32.7943 27.2383 32.8177V22.7099ZM28.7221 22.7099V32.8177C28.7907 32.7943 28.855 32.7672 28.9136 32.7364L38.3379 27.7838C38.3478 27.7786 38.3572 27.7735 38.3662 27.7684L38.3742 27.7638L38.3594 27.7554L38.3379 27.7438L28.9136 22.7913C28.855 22.7605 28.7907 22.7334 28.7221 22.7099ZM38.4725 17.2599L30.0184 21.7027L38.4725 26.1454V17.2599ZM17.5072 17.2703V26.135L25.9417 21.7027L17.5072 17.2703ZM28.9136 10.6691C28.4235 10.4115 27.5368 10.4115 27.0467 10.6691L17.6225 15.6216C17.6126 15.6268 17.6032 15.6319 17.5942 15.637L17.5862 15.6416L17.601 15.65L17.6225 15.6617L27.0467 20.6142C27.5368 20.8717 28.4235 20.8717 28.9136 20.6142L38.3379 15.6617C38.3478 15.6565 38.3572 15.6513 38.3662 15.6462L38.3742 15.6416L38.3594 15.6332L38.3379 15.6216L28.9136 10.6691ZM39.8653 11.2122L40.4645 11.5722L40.5651 11.6337C40.7384 11.7401 40.8819 11.8315 41.0159 11.9213C42.4475 12.8816 42.9814 13.9286 42.9918 16.1066L42.9921 16.173H41.5087C41.5087 15.2192 41.3973 14.5923 41.1761 14.1506C40.9928 13.7846 40.7177 13.5048 40.2153 13.1644L40.1867 13.1451C40.0764 13.0712 39.955 12.9937 39.8072 12.9027L39.6328 12.7964L39.0976 12.475L39.8653 11.2122Z"
              fill="white"/>
    </g>
    <defs>
        <clipPath id="clip0_2_1806">
            <rect width="56" height="56" fill="white"/>
        </clipPath>
    </defs>
</svg>
