<svg xmlns="http://www.w3.org/2000/svg" viewBox="0 0 500 500"><path fill="#001220" d="M0 0h500v500H0z"/><path fill="#4facf7" d="m0 397 7.5-2.7c7.5-2.6 22.5-8 37.7-9 15.1-1 30.5 2.4 45.6-2.5 15.2-4.8 30.2-17.8 45.4-27 15.1-9.1 30.5-14.5 45.6-16.5 15.2-2 30.2-.6 45.4 0 15.1.7 30.5.7 45.6 10 15.2 9.4 30.2 28 45.4 27.5 15.1-.5 30.5-20.1 45.6-29.1 15.2-9 30.2-7.4 45.4-1.2 15.1 6.2 30.5 16.8 45.6 22.8 15.2 6 30.2 7.4 37.7 8l7.5.7v123H0Z"/><path fill="#1a94fc" d="m0 383 7.5-1c7.5-1 22.5-3 37.7-1 15.1 2 30.5 8 45.6 11.2 15.2 3.1 30.2 3.5 45.4 4.1 15.1.7 30.5 1.7 45.6.9 15.2-.9 30.2-3.5 45.4-7.2 15.1-3.7 30.5-8.3 45.6-9.2 15.2-.8 30.2 2.2 45.4 2.2 15.1 0 30.5-3 45.6 3.5C379 393 394 409 409.2 413.7c15.1 4.6 30.5-2 45.6-7 15.2-5 30.2-8.4 37.7-10l7.5-1.7v106H0Z"/><path fill="#0079fc" d="m0 424 7.5-1.3c7.5-1.4 22.5-4 37.7-3.4 15.1.7 30.5 4.7 45.6 5.4 15.2.6 30.2-2 45.4 1.3 15.1 3.3 30.5 12.7 45.6 17.3 15.2 4.7 30.2 4.7 45.4-.8 15.1-5.5 30.5-16.5 45.6-18.5 15.2-2 30.2 5 45.4 6.8 15.1 1.9 30.5-1.5 45.6-4.1 15.2-2.7 30.2-4.7 45.4-3.2 15.1 1.5 30.5 6.5 45.6 5.8 15.2-.6 30.2-7 37.7-10.1l7.5-3.2v85H0Z"/><path fill="#1f5af6" d="m0 467 7.5-1.5c7.5-1.5 22.5-4.5 37.7-6 15.1-1.5 30.5-1.5 45.6-4.2 15.2-2.6 30.2-8 45.4-6.3 15.1 1.7 30.5 10.3 45.6 12.5 15.2 2.2 30.2-2.2 45.4-4.3 15.1-2.2 30.5-2.2 45.6-1 15.2 1.1 30.2 3.5 45.4 6.8 15.1 3.3 30.5 7.7 45.6 4.5 15.2-3.2 30.2-13.8 45.4-15 15.1-1.2 30.5 7.2 45.6 7.5 15.2.3 30.2-7.3 37.7-11.2l7.5-3.8v56H0Z"/><path d="M94.121 167.814q0-2.127 1.349-3.681 1.35-1.554 3.231-1.554h66.411q2.126 0 3.231 1.35 1.104 1.349 1.104 3.312v8.915q0 1.881-1.104 3.231-1.105 1.349-3.231 1.349h-50.463v40.648h40.649q2.126 0 3.23 1.391 1.104 1.39 1.104 3.271v8.833q0 1.881-1.104 3.231-1.104 1.349-3.23 1.349h-40.73v43.266q0 2.126-1.35 3.68-1.349 1.554-3.231 1.554H98.619q-1.881 0-3.19-1.554-1.308-1.554-1.308-3.68Zm140.517 103.951q29.689 0 29.689-33.778v-70.173q0-2.127 1.349-3.681 1.35-1.554 3.231-1.554h11.205q1.881 0 3.19 1.554 1.308 1.554 1.308 3.681v70.01q0 25.19-14.722 39.339-13.494 12.922-35.168 12.922-21.755 0-35.414-13.413-14.313-13.985-14.313-38.848v-70.01q0-2.127 1.35-3.681 1.349-1.554 3.231-1.554h11.204q1.881 0 3.19 1.554t1.309 3.681v70.173q0 16.93 8.26 25.599 7.606 8.179 21.101 8.179Zm82.367-102.07q0-2.863 1.922-4.989 1.922-2.127 5.357-2.127h25.927q32.387 0 48.745 16.031 15.539 15.376 15.539 43.919 0 30.507-17.461 47.968-17.462 17.462-48.296 17.462h-24.454q-3.435 0-5.357-2.167-1.922-2.168-1.922-5.03Zm35.659 10.878h-4.089q-2.699 0-11.041.245v89.066l13.331.245h.491q31.651 0 38.93-27.316 2.372-8.833 2.372-19.588t-2.576-18.566q-2.577-7.811-7.647-13.209-10.224-10.877-29.771-10.877Z" style="fill:#1a94fc"/></svg>