<svg width="57" height="56" viewBox="0 0 57 56" fill="none" xmlns="http://www.w3.org/2000/svg">
<rect width="57" height="56" fill="#D9D9D9"/>
<path d="M35.1656 10.5165C34.4427 11.2394 33.2023 11.4593 32.4794 10.7364L29.3388 7.59582C28.5444 6.80139 27.2564 6.80139 26.4619 7.59582L23.3214 10.7364C22.5985 11.4593 21.3581 11.2394 20.6352 10.5165C18.2277 8.10902 14.3244 8.10903 11.9169 10.5165C9.50942 12.924 9.50941 16.8273 11.9169 19.2348C12.6398 19.9577 12.8597 21.1981 12.1368 21.921L8.99621 25.0616C8.20178 25.856 8.20178 27.144 8.99621 27.9384L12.1368 31.079C12.8597 31.8019 14.1001 31.582 14.823 30.8591C17.2305 28.4517 21.1338 28.4516 23.5413 30.8591C25.9487 33.2666 25.9487 37.1699 23.5413 39.5774C22.8184 40.3003 22.5985 41.5407 23.3214 42.2636L26.4619 45.4042C27.2564 46.1986 28.5444 46.1986 29.3388 45.4042L32.4794 42.2636C33.2023 41.5407 34.4427 41.7606 35.1656 42.4835C37.5731 44.891 41.4764 44.891 43.8839 42.4835C46.2914 40.076 46.2914 36.1727 43.8839 33.7652C43.161 33.0423 42.9411 31.8019 43.664 31.079L46.8046 27.9384C47.599 27.144 47.599 25.856 46.8046 25.0616L43.664 21.921C42.9411 21.1981 43.161 19.9577 43.8839 19.2348C46.2914 16.8273 46.2914 12.924 43.8839 10.5165C41.4764 8.10902 37.5731 8.10903 35.1656 10.5165Z" fill="#7075E9"/>
<rect x="36" y="39" width="14" height="14" rx="7" fill="#F88545"/>
<path d="M44.5646 42.5575C44.4089 42.7132 44.1418 42.7605 43.9861 42.6048L43.3096 41.9284C43.1385 41.7573 42.8611 41.7573 42.69 41.9284L42.0136 42.6048C41.8579 42.7605 41.5907 42.7132 41.435 42.5575C40.9165 42.0389 40.0757 42.0389 39.5572 42.5575C39.0387 43.076 39.0387 43.9167 39.5572 44.4352C39.7129 44.5909 39.7603 44.8581 39.6046 45.0138L38.9281 45.6902C38.757 45.8613 38.757 46.1388 38.9281 46.3099L39.6046 46.9863C39.7603 47.142 40.0274 47.0946 40.1831 46.9389C40.7017 46.4204 41.5424 46.4204 42.0609 46.9389C42.5795 47.4575 42.5794 48.2982 42.0609 48.8167C41.9052 48.9724 41.8579 49.2396 42.0136 49.3953L42.69 50.0717C42.8611 50.2428 43.1385 50.2428 43.3096 50.0717L43.9861 49.3953C44.1418 49.2396 44.4089 49.2869 44.5646 49.4426C45.0832 49.9612 45.9239 49.9612 46.4424 49.4426C46.9609 48.9241 46.9609 48.0834 46.4424 47.5649C46.2867 47.4092 46.2393 47.142 46.395 46.9863L47.0715 46.3099C47.2426 46.1388 47.2426 45.8613 47.0715 45.6902L46.395 45.0138C46.2393 44.8581 46.2867 44.5909 46.4424 44.4352C46.9609 43.9167 46.9609 43.076 46.4424 42.5575C45.9239 42.0389 45.0832 42.0389 44.5646 42.5575Z" fill="white"/>
</svg>
