<svg width="56" height="56" viewBox="0 0 56 56" fill="none" xmlns="http://www.w3.org/2000/svg">
<g clip-path="url(#clip0_1602_223)">
<rect width="56" height="56" fill="#0055FF"/>
<path d="M28 12L44 28L28 44L12 28L28 12Z" fill="white"/>
</g>
<rect x="23" y="45" width="10" height="10" rx="5" fill="#F88545"/>
<path d="M29.1177 47.541C29.0065 47.6522 28.8157 47.686 28.7045 47.5748L28.2213 47.0917C28.0991 46.9694 27.9009 46.9694 27.7787 47.0917L27.2955 47.5748C27.1843 47.686 26.9935 47.6522 26.8823 47.541C26.5119 47.1706 25.9114 47.1706 25.541 47.541C25.1706 47.9114 25.1706 48.5119 25.541 48.8823C25.6522 48.9935 25.686 49.1843 25.5748 49.2955L25.0917 49.7787C24.9694 49.9009 24.9694 50.0991 25.0917 50.2213L25.5748 50.7045C25.686 50.8157 25.8769 50.7819 25.9881 50.6706C26.3585 50.3003 26.959 50.3003 27.3294 50.6706C27.6997 51.041 27.6997 51.6415 27.3294 52.0119C27.2181 52.1231 27.1843 52.314 27.2955 52.4252L27.7787 52.9083C27.9009 53.0306 28.0991 53.0306 28.2213 52.9083L28.7045 52.4252C28.8157 52.314 29.0065 52.3478 29.1177 52.459C29.4881 52.8294 30.0886 52.8294 30.459 52.459C30.8294 52.0886 30.8294 51.4881 30.459 51.1177C30.3478 51.0065 30.314 50.8157 30.4252 50.7045L30.9083 50.2213C31.0306 50.0991 31.0306 49.9009 30.9083 49.7787L30.4252 49.2955C30.314 49.1843 30.3478 48.9935 30.459 48.8823C30.8294 48.5119 30.8294 47.9114 30.459 47.541C30.0886 47.1706 29.4881 47.1706 29.1177 47.541Z" fill="white"/>
<rect x="10" y="37" width="12" height="12" rx="6" fill="#F88545"/>
<path d="M17.3417 40.0492C17.2082 40.1827 16.9792 40.2233 16.8457 40.0898L16.2659 39.51C16.1193 39.3634 15.8815 39.3634 15.7348 39.51L15.155 40.0898C15.0216 40.2233 14.7926 40.1827 14.6591 40.0492C14.2147 39.6048 13.4941 39.6048 13.0496 40.0492C12.6051 40.4937 12.6051 41.2143 13.0496 41.6588C13.1831 41.7922 13.2236 42.0212 13.0902 42.1547L12.5104 42.7345C12.3637 42.8811 12.3637 43.1189 12.5104 43.2656L13.0902 43.8454C13.2236 43.9788 13.4526 43.9382 13.5861 43.8048C14.0306 43.3603 14.7512 43.3603 15.1956 43.8048C15.6401 44.2492 15.6401 44.9699 15.1956 45.4143C15.0622 45.5478 15.0216 45.7768 15.155 45.9102L15.7348 46.49C15.8815 46.6367 16.1193 46.6367 16.2659 46.49L16.8458 45.9102C16.9792 45.7768 17.2082 45.8174 17.3417 45.9508C17.7861 46.3953 18.5067 46.3953 18.9512 45.9508C19.3956 45.5064 19.3956 44.7858 18.9512 44.3413C18.8177 44.2078 18.7771 43.9788 18.9106 43.8454L19.4904 43.2656C19.6371 43.1189 19.6371 42.8811 19.4904 42.7345L18.9106 42.1547C18.7771 42.0212 18.8177 41.7922 18.9512 41.6588C19.3956 41.2143 19.3956 40.4937 18.9512 40.0492C18.5067 39.6048 17.7861 39.6048 17.3417 40.0492Z" fill="white"/>
<rect x="34" y="37" width="12" height="12" rx="6" fill="#F88545"/>
<path d="M41.3417 40.0492C41.2082 40.1827 40.9792 40.2233 40.8457 40.0898L40.2659 39.51C40.1193 39.3634 39.8815 39.3634 39.7348 39.51L39.155 40.0898C39.0216 40.2233 38.7926 40.1827 38.6591 40.0492C38.2147 39.6048 37.4941 39.6048 37.0496 40.0492C36.6051 40.4937 36.6051 41.2143 37.0496 41.6588C37.1831 41.7922 37.2236 42.0212 37.0902 42.1547L36.5104 42.7345C36.3637 42.8811 36.3637 43.1189 36.5104 43.2656L37.0902 43.8454C37.2236 43.9788 37.4526 43.9382 37.5861 43.8048C38.0306 43.3603 38.7512 43.3603 39.1956 43.8048C39.6401 44.2492 39.6401 44.9699 39.1956 45.4143C39.0622 45.5478 39.0216 45.7768 39.155 45.9102L39.7348 46.49C39.8815 46.6367 40.1193 46.6367 40.2659 46.49L40.8458 45.9102C40.9792 45.7768 41.2082 45.8174 41.3417 45.9508C41.7861 46.3953 42.5067 46.3953 42.9512 45.9508C43.3956 45.5064 43.3956 44.7858 42.9512 44.3413C42.8177 44.2078 42.7771 43.9788 42.9106 43.8454L43.4904 43.2656C43.6371 43.1189 43.6371 42.8811 43.4904 42.7345L42.9106 42.1547C42.7771 42.0212 42.8177 41.7922 42.9512 41.6588C43.3956 41.2143 43.3956 40.4937 42.9512 40.0492C42.5067 39.6048 41.7861 39.6048 41.3417 40.0492Z" fill="white"/>
<defs>
<clipPath id="clip0_1602_223">
<rect width="56" height="56" fill="white"/>
</clipPath>
</defs>
</svg>
