<svg width="300" height="300" viewBox="0 0 300 300" fill="none" xmlns="http://www.w3.org/2000/svg">
    <path fill-rule="evenodd" clip-rule="evenodd"
          d="M184.903 86.6464C132.321 90.9784 90.2029 132.22 84.5178 184.405C48.3121 175.616 21.4285 142.988 21.4285 104.082C21.4285 58.4337 58.4361 21.4286 104.088 21.4286C143.757 21.4286 176.899 49.3713 184.903 86.6464Z"
          fill="#7075E9"/>
    <path fill-rule="evenodd" clip-rule="evenodd"
          d="M149.548 95.6354C125.592 106.228 106.119 125.105 94.7621 148.634L93.4451 147.317C91.5301 145.402 92.1124 142.116 94.0274 140.201C100.406 133.823 100.406 123.482 94.0274 117.105C87.6489 110.727 77.3081 110.727 70.9301 117.105C69.0147 119.02 65.7285 119.602 63.8134 117.687L55.4929 109.368C53.3884 107.263 53.3884 103.851 55.4929 101.746L63.8134 93.4268C65.7285 91.511 65.146 88.2251 63.2307 86.3103C56.8527 79.9326 56.8527 69.5922 63.2307 63.2143C69.609 56.8367 79.9502 56.8367 86.3282 63.2143C88.244 65.1295 91.5301 65.7119 93.4451 63.797L101.765 55.4771C103.87 53.3727 107.282 53.3727 109.387 55.4771L117.707 63.797C119.622 65.7119 122.909 65.1295 124.824 63.2143C131.202 56.8367 141.543 56.8367 147.922 63.2143C154.299 69.5922 154.299 79.9326 147.922 86.3103C146.006 88.2251 145.424 91.511 147.339 93.4268L149.548 95.6354Z"
          fill="white"/>
    <path fill-rule="evenodd" clip-rule="evenodd"
          d="M278.571 195.918L195.912 113.265L113.254 195.918L195.912 278.572L278.571 195.918ZM198.872 248.905H191.769V238.606C177.678 237.361 166.018 229.018 165.604 215.226H175.909C176.962 222.577 181.475 228.175 191.581 229.349C194.416 229.88 197.326 229.867 200.156 229.31C210.212 228.175 214.147 222.946 214.147 216.411C214.147 209.898 210.951 205.754 199.23 202.911L198.872 202.856C196.75 202.145 194.077 201.533 190.782 200.883L190.407 200.784C175.667 197.23 167.737 190.662 167.737 179.002C167.737 166.274 177.739 157.87 191.769 156.631V146.327H198.877V156.565C212.543 157.81 223.201 166.45 223.62 179.531H213.315C212.543 171.541 206.868 166.869 198.877 165.86V165.915C196.518 165.547 194.112 165.594 191.769 166.053V165.921C182.77 167.106 178.036 172.55 178.036 178.291C178.036 183.928 181.398 188.336 190.936 190.866C193.041 191.582 195.676 192.232 198.872 192.656V192.794L200.707 193.207C215.916 196.877 224.446 203.153 224.446 215.579C224.446 229.85 212.841 237.598 198.877 238.667V248.905H198.872Z"
          fill="#05B595"/>
    <path fill-rule="evenodd" clip-rule="evenodd"
          d="M113.253 196.102C130.356 186.014 143.722 182.873 154.968 183.036C159.682 183.104 164.14 183.747 168.487 184.797C167.984 183.021 167.728 181.092 167.728 179C167.728 166.274 177.732 157.869 191.761 156.626V146.327H198.865V156.566C212.54 157.81 223.195 166.452 223.609 179.533H213.309C212.54 171.542 206.857 166.866 198.865 165.86L191.761 165.919C182.764 167.103 178.028 172.549 178.028 178.29C178.028 184.091 181.58 188.59 191.761 191.076L198.865 192.792L200.7 193.207C210.448 195.558 217.449 198.978 221.222 204.401C225.311 205.348 229.578 206.023 234.056 206.3C246.962 207.098 261.152 204.602 277.718 196.775L278.57 195.918L195.912 113.265L190.292 118.884C167.541 141.633 131.88 177.29 113.253 195.918C113.376 195.845 113.315 195.927 113.254 196.009C113.192 196.092 113.13 196.175 113.253 196.102Z"
          fill="#00FEB5"/>
</svg>
