<?xml version="1.0" encoding="UTF-8" standalone="no"?>
<svg
   width="264.56693"
   height="264.58536"
   viewBox="0 0 264.56693 264.58535"
   fill="none"
   version="1.1"
   id="svg2595"
   sodipodi:docname="puzzleusdn.svg"
   inkscape:version="1.2 (dc2aedaf03, 2022-05-15)"
   xmlns:inkscape="http://www.inkscape.org/namespaces/inkscape"
   xmlns:sodipodi="http://sodipodi.sourceforge.net/DTD/sodipodi-0.dtd"
   xmlns="http://www.w3.org/2000/svg"
   xmlns:svg="http://www.w3.org/2000/svg">
  <sodipodi:namedview
     id="namedview2597"
     pagecolor="#ffffff"
     bordercolor="#666666"
     borderopacity="1.0"
     inkscape:showpageshadow="2"
     inkscape:pageopacity="0.0"
     inkscape:pagecheckerboard="0"
     inkscape:deskcolor="#d1d1d1"
     showgrid="false"
     inkscape:zoom="2.2842864"
     inkscape:cx="128.48652"
     inkscape:cy="139.86863"
     inkscape:window-width="1920"
     inkscape:window-height="1043"
     inkscape:window-x="0"
     inkscape:window-y="37"
     inkscape:window-maximized="1"
     inkscape:current-layer="svg2595" />
  <g
     id="g3192"
     transform="translate(18.897636,18.898954)">
    <path
       fill-rule="evenodd"
       clip-rule="evenodd"
       d="M 144.16676,57.518967 C 97.7952,61.339526 60.651469,97.712991 55.637846,143.73708 23.70836,135.9858 0,107.20971 0,72.895967 0,32.636658 32.636658,0 72.896371,0 107.87996,0 137.108,24.644102 144.16676,57.518967 Z"
       fill="#7075e9"
       id="path2580"
       style="stroke-width:8.09955" />
    <path
       fill-rule="evenodd"
       clip-rule="evenodd"
       d="M 112.98753,65.446808 C 91.86066,74.788831 74.687993,91.437463 64.672087,112.18932 l -1.161476,-1.16229 c -1.688757,-1.68875 -1.175246,-4.58677 0.51351,-6.27552 5.62514,-5.625141 5.62514,-14.745244 0,-20.369569 -5.625138,-5.62514 -14.744585,-5.62514 -20.369238,0 -1.689162,1.688753 -4.587261,2.202268 -6.276099,0.51351 l -7.337789,-7.337382 c -1.855932,-1.856418 -1.855932,-4.865402 0,-6.721818 l 7.337789,-7.337385 c 1.688838,-1.689567 1.175163,-4.587585 -0.513917,-6.276342 -5.624734,-5.624815 -5.624734,-14.744586 0,-20.369564 5.624976,-5.624733 14.744748,-5.624733 20.369402,0 1.689566,1.689081 4.587585,2.202755 6.276342,0.513917 l 7.337384,-7.337789 c 1.856416,-1.85593 4.8654,-1.85593 6.721818,0 l 7.337384,7.337789 c 1.688754,1.688838 4.587586,1.175164 6.276346,-0.513917 5.624323,-5.624733 14.744417,-5.624733 20.369567,0 5.62433,5.624978 5.62433,14.744749 0,20.369564 -1.68958,1.688757 -2.20308,4.586775 -0.51433,6.276342 z"
       fill="#ffffff"
       id="path2582"
       style="stroke-width:8.09955" />
    <g
       clip-path="url(#clip0_25566_330506)"
       id="g2588"
       transform="matrix(8.0995517,0,0,8.0995517,-24.31445,-24.298654)">
      <path
         fill-rule="evenodd"
         clip-rule="evenodd"
         d="m 31,22 -9,-9 -9,9 9,9 z m -8.6778,5.7696 H 21.5488 V 26.6482 C 20.0146,26.5126 18.745,25.6042 18.7,24.1024 h 1.122 c 0.1146,0.8004 0.606,1.41 1.7064,1.5378 0.3087,0.0578 0.6255,0.0564 0.9336,-0.0042 1.095,-0.1236 1.5234,-0.693 1.5234,-1.4046 0,-0.7092 -0.348,-1.1604 -1.6242,-1.47 l -0.039,-0.006 c -0.231,-0.0774 -0.522,-0.144 -0.8808,-0.2148 l -0.0408,-0.0108 c -1.605,-0.387 -2.4684,-1.1022 -2.4684,-2.3718 0,-1.386 1.089,-2.301 2.6166,-2.436 V 16.6 h 0.774 v 1.1148 c 1.488,0.1356 2.6484,1.0764 2.694,2.5008 h -1.122 c -0.084,-0.87 -0.702,-1.3788 -1.572,-1.4886 v 0.006 c -0.2569,-0.0401 -0.5188,-0.035 -0.774,0.015 v -0.0144 c -0.9798,0.129 -1.4952,0.7218 -1.4952,1.347 0,0.6138 0.366,1.0938 1.4046,1.3692 0.2292,0.078 0.516,0.1488 0.864,0.195 v 0.015 l 0.1998,0.045 c 1.656,0.3996 2.5848,1.083 2.5848,2.436 0,1.554 -1.2636,2.3976 -2.784,2.514 v 1.1148 z"
         fill="#05b595"
         id="path2584" />
      <path
         fill-rule="evenodd"
         clip-rule="evenodd"
         d="m 12.9999,22.02 c 1.8622,-1.0985 3.3175,-1.4405 4.542,-1.4228 0.5133,0.0074 0.9987,0.0775 1.472,0.1918 -0.0548,-0.1934 -0.0827,-0.4034 -0.0827,-0.6312 0,-1.3857 1.0893,-2.301 2.6168,-2.4363 V 16.6 h 0.7735 v 1.115 c 1.4889,0.1354 2.649,1.0764 2.6941,2.5008 H 23.8941 C 23.8104,19.3457 23.1916,18.8365 22.3215,18.727 l -0.7735,0.0064 c -0.9796,0.1289 -1.4953,0.7219 -1.4953,1.3471 0,0.6316 0.3868,1.1215 1.4953,1.3922 l 0.7735,0.1869 0.1998,0.0451 c 1.0613,0.256 1.8236,0.6285 2.2344,1.219 0.4452,0.1031 0.9098,0.1766 1.3974,0.2067 1.4052,0.0869 2.9503,-0.1849 4.754,-1.0371 L 30.9998,22 21.9999,13 21.388,13.6118 c -2.4771,2.4771 -6.3599,6.3598 -8.3881,8.3882 0.0134,-0.008 0.0068,9e-4 10e-5,0.0099 -0.0067,0.009 -0.0135,0.018 -10e-5,0.0101 z"
         fill="#00feb5"
         id="path2586" />
    </g>
  </g>
  <defs
     id="defs2593">
    <clipPath
       id="clip0_25566_330506">
      <rect
         width="18"
         height="18"
         fill="#ffffff"
         transform="translate(13,13)"
         id="rect2590"
         x="0"
         y="0" />
    </clipPath>
  </defs>
</svg>
