<svg width="378" height="378" viewBox="0 0 378 378" fill="none" xmlns="http://www.w3.org/2000/svg">
    <path d="M122.365 297.626L61 262.174V190.991V119.808L62.006 120.415C62.5593 120.75 75.1998 128.056 90.096 136.653C104.992 145.25 127.487 158.234 140.085 165.507C152.683 172.781 167.756 181.468 173.581 184.814L184.171 190.896L184.182 262.011C184.189 301.124 184.089 333.116 183.962 333.102C183.834 333.09 156.115 317.125 122.365 297.626H122.365ZM74.397 117.599C69.5935 114.841 65.6936 112.483 65.7305 112.36C65.7675 112.236 77.7766 105.22 92.4175 96.7691C107.058 88.3182 133.502 73.0532 151.181 62.847C168.86 52.6408 183.659 44.1987 183.898 44.107C184.265 43.9661 184.193 45.5253 184.187 54.1273L184.179 64.2976L175.597 69.2322C167.601 73.8295 87.1063 120.292 84.3693 121.89L83.1307 122.613L74.397 117.599Z"
          fill="#6952F1"/>
    <path d="M193.013 264.72C193.013 227.011 193.049 211.585 193.093 230.439C193.137 249.293 193.137 280.146 193.093 299C193.049 317.855 193.013 302.428 193.013 264.72ZM255.14 221.854C221.722 202.56 194.105 186.588 193.769 186.359C193.167 185.949 193.16 185.5 193.242 153.057L193.325 120.17L254.439 155.453C288.053 174.859 315.667 190.85 315.806 190.988C315.944 191.126 316.022 206.021 315.978 224.086L315.9 256.933L255.14 221.854ZM254.612 145.374L193.325 109.99L193.246 76.9952L193.167 44L193.865 44.3652C194.249 44.566 206.681 51.7238 221.492 60.2713C236.303 68.8187 263.465 84.4876 281.851 95.0909C300.237 105.694 315.455 114.531 315.669 114.728C315.977 115.011 316.041 121.905 315.978 147.922L315.9 180.758L254.612 145.374ZM127.017 147.905L118.282 142.851L151.061 123.926C169.09 113.517 183.922 105.001 184.022 105.001C184.121 105.001 184.165 109.539 184.121 115.086L184.039 125.171L160.205 138.948C147.096 146.525 136.232 152.777 136.062 152.841C135.891 152.905 131.821 150.684 127.017 147.905H127.017ZM100.93 132.831C96.248 130.125 92.4175 127.776 92.4175 127.61C92.4175 127.444 112.458 115.738 136.953 101.596C161.447 87.4546 182.097 75.5274 182.841 75.0914L184.194 74.2986L184.191 84.4652L184.189 94.6318L148.54 115.216C128.933 126.537 112.115 136.238 111.166 136.775L109.442 137.75L100.93 132.831Z"
          fill="#5327DA"/>
    <path d="M193.17 264.712C193.17 227.064 193.284 196.308 193.423 196.365C193.563 196.421 220.223 211.79 252.669 230.516C296.403 255.759 311.568 264.654 311.304 264.909C311.062 265.142 199.641 329.521 193.402 333.032C193.275 333.104 193.17 302.36 193.17 264.712ZM177.848 177.259C174.443 175.293 171.548 173.575 171.413 173.441C171.279 173.307 174.099 171.511 177.681 169.449L184.194 165.701V173.269C184.194 177.431 184.159 180.836 184.116 180.835C184.074 180.835 181.253 179.226 177.848 177.259ZM153.351 163.128L144.64 158.101L145.458 157.606C146.824 156.778 182.75 136.069 183.497 135.678L184.194 135.313L184.189 145.462L184.185 155.61L173.459 161.8C167.56 165.205 162.583 168.028 162.398 168.073C162.213 168.119 158.142 165.894 153.351 163.128H153.351Z"
          fill="#371990"/>
</svg>
