<?xml version="1.0" encoding="UTF-8" standalone="no"?>
<!-- Created with Inkscape (http://www.inkscape.org/) -->

<svg
   version="1.1"
   id="svg1251"
   width="158.36087"
   height="179.32771"
   viewBox="0 0 158.36088 179.32772"
   sodipodi:docname="sNSBT_TCI.svg"
   inkscape:version="1.1.2 (0a00cf5339, 2022-02-04)"
   xmlns:inkscape="http://www.inkscape.org/namespaces/inkscape"
   xmlns:sodipodi="http://sodipodi.sourceforge.net/DTD/sodipodi-0.dtd"
   xmlns="http://www.w3.org/2000/svg"
   xmlns:svg="http://www.w3.org/2000/svg">
  <defs
     id="defs1255" />
  <sodipodi:namedview
     id="namedview1253"
     pagecolor="#ffffff"
     bordercolor="#666666"
     borderopacity="1.0"
     inkscape:pageshadow="2"
     inkscape:pageopacity="0.0"
     inkscape:pagecheckerboard="0"
     showgrid="false"
     fit-margin-top="0"
     fit-margin-left="0"
     fit-margin-right="0"
     fit-margin-bottom="0"
     inkscape:zoom="2"
     inkscape:cx="94.75"
     inkscape:cy="38"
     inkscape:window-width="1920"
     inkscape:window-height="1052"
     inkscape:window-x="0"
     inkscape:window-y="28"
     inkscape:window-maximized="1"
     inkscape:current-layer="g1257" />
  <g
     inkscape:groupmode="layer"
     inkscape:label="Image"
     id="g1257"
     transform="translate(-22.876102,-11.280384)">
    <g
       id="g1383"
       transform="translate(21.316131,-6.6983971)">
      <path
         style="fill:#6952f1;stroke-width:0.192"
         d="M 39.623971,175.3009 1.5599712,153.31006 V 109.15598 65.001906 l 0.624,0.376736 c 0.3432,0.207205 8.1839998,4.73962 17.4239998,10.072035 9.24,5.332414 23.1936,13.386538 31.008,17.898053 7.8144,4.511512 17.164053,9.90055 20.777008,11.97562 l 6.569009,3.77288 0.007,44.112 c 0.0038,24.2616 -0.05781,44.10537 -0.137008,44.09726 -0.0792,-0.008 -17.2728,-9.91062 -38.208,-22.00559 z M 9.8700309,63.631486 c -2.9795908,-1.710643 -5.3986777,-3.17309 -5.3757487,-3.24988 0.022929,-0.07679 7.4720888,-4.428567 16.5536888,-9.670613 9.0816,-5.242045 25.484394,-14.710749 36.450655,-21.041565 10.96626,-6.330817 20.145461,-11.567409 20.293601,-11.624255 0.227814,-0.08742 0.183057,0.879707 0.179284,6.215507 l -0.0045,6.308543 -5.323538,3.060847 C 67.683782,36.481739 17.753458,65.302153 16.05572,66.293259 l -0.768251,0.448489 z"
         id="path1389"
         sodipodi:nodetypes="ccccsssscccscsssssscsscs" />
      <path
         style="fill:#5327da;stroke-width:0.192"
         d="m 83.446278,154.88923 c 0,-23.3904 0.02236,-32.9592 0.04969,-21.264 0.02733,11.6952 0.02733,30.8328 0,42.528 -0.02733,11.6952 -0.04969,2.1264 -0.04969,-21.264 z M 121.9833,128.29991 C 101.25453,116.33226 84.124084,106.4246 83.915645,106.28289 83.541777,106.02871 83.537359,105.74982 83.588316,85.625688 l 0.05165,-20.399538 37.908824,21.885962 c 20.84986,12.037282 37.97904,21.956188 38.06488,22.042018 0.0858,0.0858 0.13406,9.3246 0.10718,20.5306 l -0.0489,20.37455 z M 121.65597,80.8604 83.639971,58.912038 83.591101,38.445409 83.542231,17.978781 83.9751,18.205302 c 0.238079,0.124586 7.94967,4.564466 17.13687,9.8664 9.1872,5.301933 26.0352,15.021165 37.44,21.598292 11.4048,6.577128 20.8444,12.058379 20.97688,12.180558 0.19085,0.17601 0.23073,4.451852 0.192,20.590177 l -0.0489,20.368031 z M 42.509649,82.429906 37.091326,79.295402 57.424197,67.556314 c 11.18308,-6.4565 20.383306,-11.73909 20.444947,-11.73909 0.06164,0 0.08929,2.815091 0.06145,6.255756 l -0.05062,6.255756 -14.784,8.545373 c -8.1312,4.699953 -14.8704,8.577981 -14.976,8.617836 -0.1056,0.03986 -2.630244,-1.338061 -5.610322,-3.062039 z M 26.327971,73.079615 c -2.904,-1.678201 -5.28,-3.135452 -5.28,-3.238338 0,-0.102885 12.431207,-7.364112 27.624906,-16.136061 15.193698,-8.771948 28.002498,-16.170281 28.464,-16.44074 l 0.839094,-0.491741 -0.0014,6.306245 -0.0014,6.306244 -22.112968,12.768 C 43.698019,69.175625 33.26586,75.193399 32.677578,75.526058 l -1.069607,0.604831 z"
         id="path1387" />
      <path
         style="fill:#371990;stroke-width:0.192"
         d="m 83.543971,154.88456 c 0,-23.35263 0.07068,-42.43053 0.157066,-42.39533 0.08639,0.0352 16.623583,9.568 36.749333,21.184 27.128,15.6575 36.53501,21.17515 36.37093,21.33323 -0.15022,0.14473 -69.263275,40.0782 -73.133329,42.25639 -0.0792,0.0446 -0.144,-19.02565 -0.144,-42.37829 z m -9.504,-54.2461 c -2.112,-1.219544 -3.908263,-2.285411 -3.991697,-2.368592 -0.08343,-0.08318 1.666166,-1.197423 3.888,-2.476093 l 4.039697,-2.324855 v 4.694154 c 0,2.581786 -0.0216,4.693836 -0.048,4.693446 -0.0264,-3.8e-4 -1.776,-0.99852 -3.888,-2.21806 z m -15.195538,-8.765333 -5.403537,-3.118572 0.507537,-0.307238 c 0.847507,-0.513038 23.13191,-13.35866 23.595538,-13.601412 l 0.432,-0.226191 -0.0028,6.294757 -0.0028,6.294755 -6.652831,3.84 c -3.659055,2.112 -6.746574,3.863058 -6.861154,3.891237 -0.11458,0.02818 -2.639918,-1.352121 -5.611865,-3.067336 z"
         id="path1385" />
    </g>
  </g>
</svg>
