<svg width="72" height="72" viewBox="0 0 72 72" fill="none" xmlns="http://www.w3.org/2000/svg">
<path d="M35.6754 0.985726L0.320068 36.3411L12.0892 48.1102L23.9215 59.9217L35.6754 71.6964L71.0307 36.3411L59.2664 24.5768L47.4445 12.7548L35.6754 0.985726Z" fill="#375BA7"/>
<rect x="23.9111" y="59.9321" width="11.25" height="32.7802" transform="rotate(-135 23.9111 59.9321)" fill="url(#paint0_linear_79_6789)" style="mix-blend-mode:overlay"/>
<rect x="47.4813" y="12.7915" width="11.25" height="32.7802" transform="rotate(45 47.4813 12.7915)" fill="url(#paint1_linear_79_6789)" style="mix-blend-mode:overlay"/>
<rect width="11.25" height="32.7802" transform="matrix(0.707107 0.707107 0.707107 -0.707107 23.9111 59.9321)" fill="url(#paint2_linear_79_6789)" style="mix-blend-mode:overlay"/>
<rect width="11.25" height="32.7802" transform="matrix(-0.707107 -0.707107 -0.707107 0.707107 47.4721 12.7915)" fill="url(#paint3_linear_79_6789)" style="mix-blend-mode:overlay"/>
<defs>
<linearGradient id="paint0_linear_79_6789" x1="23.9111" y1="64.379" x2="32.0362" y2="66.7131" gradientUnits="userSpaceOnUse">
<stop stop-color="#A4A0A0"/>
<stop offset="1" stop-color="#375BA7" stop-opacity="0"/>
</linearGradient>
<linearGradient id="paint1_linear_79_6789" x1="47.4813" y1="17.2384" x2="55.6064" y2="19.5725" gradientUnits="userSpaceOnUse">
<stop stop-color="#505050"/>
<stop offset="1" stop-color="#375BA7" stop-opacity="0"/>
</linearGradient>
<linearGradient id="paint2_linear_79_6789" x1="1.08686e-07" y1="4.44687" x2="11.7051" y2="8.46594" gradientUnits="userSpaceOnUse">
<stop stop-color="#514E4E"/>
<stop offset="1" stop-color="#375BA7" stop-opacity="0"/>
</linearGradient>
<linearGradient id="paint3_linear_79_6789" x1="1.08686e-07" y1="4.44687" x2="11.7051" y2="8.46594" gradientUnits="userSpaceOnUse">
<stop stop-color="#9F9F9F"/>
<stop offset="1" stop-color="#375BA7" stop-opacity="0"/>
</linearGradient>
</defs>
</svg>
