<svg xmlns="http://www.w3.org/2000/svg" xmlns:xlink="http://www.w3.org/1999/xlink" width="30" height="30" viewBox="0 0 30 30">
<defs>
<clipPath id="clip-custom_1">
<rect width="30" height="30"/>
</clipPath>
</defs>
<g id="custom_1" data-name="custom – 1" clip-path="url(#clip-custom_1)">
<g id="Group_1" data-name="Group 1" transform="translate(3.359 0.657)">
<path id="Path_8" data-name="Path 8" d="M402.56-368.3l-.164.616,1.166,1.669.337.175h4.376l.327-.175,1.168-1.669-.159-.616A8.073,8.073,0,0,0,402.56-368.3Z" transform="translate(-394.67 370.079)" fill="#165316"/>
<path id="Path_9" data-name="Path 9" d="M654.215-311.038l-1.106,1.569v.529l1.814,2.56.344.211h3l.226-.574a11.477,11.477,0,0,0-3.68-4.391Z" transform="translate(-638.518 313.687)" fill="#165316"/>
<path id="Path_10" data-name="Path 10" d="M659.673-111.97l-.751-.269H655.83l-.28.152-1.861,2.626v.548l1.861,2.61.28.161h4.442l.5-.482A15.53,15.53,0,0,0,659.673-111.97Z" transform="translate(-639.081 120.237)" fill="#165316"/>
<path id="Path_11" data-name="Path 11" d="M659.861,127.914h-4.418l-.347.182-1.842,2.63v.51l1.842,2.61.347.173h3.088l.726-.248a16.244,16.244,0,0,0,1.107-5.319Z" transform="translate(-638.658 -113.339)" fill="#165316"/>
<path id="Path_12" data-name="Path 12" d="M658.771,369.22h-3.014l-.274.156-1.859,2.609v.54l1.1,1.566.611.081A12.444,12.444,0,0,0,659,369.815Z" transform="translate(-639.019 -348.038)" fill="#165316"/>
<path id="Path_13" data-name="Path 13" d="M403.793,489.435l-.279.135-1.21,1.68.154.636a8.347,8.347,0,0,0,7.07,0l.147-.636-1.181-1.68-.281-.135Z" transform="translate(-394.58 -464.96)" fill="#165316"/>
<path id="Path_14" data-name="Path 14" d="M227.465,374.538l.578-.1,1.135-1.559v-.5l-1.865-2.64-.3-.15h-3.022l-.211.56A11.663,11.663,0,0,0,227.465,374.538Z" transform="translate(-220.946 -348.391)" fill="#165316"/>
<path id="Path_15" data-name="Path 15" d="M161.479,128.881l.462-.507h4.435l.352.164,1.86,2.633v.506l-1.86,2.632-.3.161h-3.112l-.749-.252A14.872,14.872,0,0,1,161.479,128.881Z" transform="translate(-160.35 -113.786)" fill="#165316"/>
<path id="Path_16" data-name="Path 16" d="M161.772-111.46l.743-.228h3.108l.314.176,1.832,2.62v.512l-1.832,2.6-.314.176-4.459.035-.51-.513A17.762,17.762,0,0,1,161.772-111.46Z" transform="translate(-159.548 119.701)" fill="#165316"/>
<path id="Path_17" data-name="Path 17" d="M227.31-311.173l.568.1L229-309.511V-309l-1.836,2.6-.322.17h-3l-.244-.556A11.805,11.805,0,0,1,227.31-311.173Z" transform="translate(-220.768 313.724)" fill="#165316"/>
<path id="Path_18" data-name="Path 18" d="M379.586-232h4.464l.316.2,1.824,2.607v.517l-1.781,2.505-.359.233h-4.464l-.3-.126-1.833-2.612v-.517l1.833-2.607Z" transform="translate(-370.406 236.716)" fill="#165316"/>
<path id="Path_19" data-name="Path 19" d="M377,11.159l1.85-2.609.323-.186h4.44l.318.186,1.834,2.609v.489l-1.834,2.608-.318.209h-4.44l-.323-.174L377,11.677Z" transform="translate(-369.97 2.936)" fill="#165316"/>
<path id="Path_20" data-name="Path 20" d="M377,252.2l1.878-2.633.275-.144h4.471l.263.144,1.864,2.633v.5l-1.8,2.551-.331.232h-4.471l-.275-.165L377,252.7Z" transform="translate(-369.97 -231.522)" fill="#165316"/>
<path id="Path_6" data-name="Path 6" d="M97.433-426.829l.715-.228-.293-.726a12.748,12.748,0,0,1,4.308-5.09l.917.142.219-.845a9.284,9.284,0,0,1,8.538,0l.183.845.992-.138a12.875,12.875,0,0,1,4.261,5.063l-.29.761.753.232a17.362,17.362,0,0,1,1.239,6.013l-.547.536.547.574a16.783,16.783,0,0,1-1.241,6.012l-.758.233.3.756a13.284,13.284,0,0,1-4.3,5.05l-.91-.141-.248.853a9.628,9.628,0,0,1-8.517,0l-.241-.858-.915.189a13.514,13.514,0,0,1-4.283-5.1l.313-.761-.793-.213a21.113,21.113,0,0,1-1.231-6.018l.611-.559-.611-.591A17.852,17.852,0,0,1,97.433-426.829Z" transform="translate(-96.159 434.604)" fill="none" stroke="#707070" stroke-width="0.5"/>
</g>
</g>
</svg>