<?xml version="1.0" encoding="UTF-8" standalone="no"?>
<svg
   width="264.56693"
   height="264.56693"
   viewBox="0 0 264.56693 264.56693"
   fill="none"
   version="1.1"
   id="svg3220"
   sodipodi:docname="usdcusdn.svg"
   inkscape:version="1.2 (dc2aedaf03, 2022-05-15)"
   xmlns:inkscape="http://www.inkscape.org/namespaces/inkscape"
   xmlns:sodipodi="http://sodipodi.sourceforge.net/DTD/sodipodi-0.dtd"
   xmlns="http://www.w3.org/2000/svg"
   xmlns:svg="http://www.w3.org/2000/svg">
  <sodipodi:namedview
     id="namedview3222"
     pagecolor="#ffffff"
     bordercolor="#666666"
     borderopacity="1.0"
     inkscape:showpageshadow="2"
     inkscape:pageopacity="0.0"
     inkscape:pagecheckerboard="0"
     inkscape:deskcolor="#d1d1d1"
     showgrid="false"
     inkscape:zoom="1.6152344"
     inkscape:cx="52.314389"
     inkscape:cy="153.22854"
     inkscape:window-width="1920"
     inkscape:window-height="1043"
     inkscape:window-x="0"
     inkscape:window-y="37"
     inkscape:window-maximized="1"
     inkscape:current-layer="svg3220" />
  <g
     id="g3709"
     transform="matrix(8.0989876,0,0,8.0989876,2.6996609,2.6996609)">
    <path
       fill-rule="evenodd"
       clip-rule="evenodd"
       d="M 19.8013,9.10206 C 14.0756,9.57415 9.48961,14.066 8.87167,19.7491 4.91868,18.7983 2,15.2538 2,11 2,6.01247 6.01247,2 11,2 c 4.336,0 7.935,3.03261 8.8013,7.10206 z"
       fill="#2775ca"
       id="path3205" />
    <path
       fill-rule="evenodd"
       clip-rule="evenodd"
       d="M 17.5657,9.50215 C 17.1895,9.60722 16.8208,9.73017 16.4605,9.87001 16.0483,8.08426 14.7664,6.52839 12.9113,5.8625 12.7988,5.78744 12.6863,5.6375 12.6863,5.48747 V 4.9625 c 0,-0.07506 0,-0.1125 0.0375,-0.15003 0.0374,-0.15003 0.1875,-0.225 0.3375,-0.15003 2.0624,0.675 3.7125,2.28753 4.3875,4.42503 0.0436,0.13794 0.0825,0.27623 0.1169,0.41468 z m -4.2151,2.15105 c -0.3809,0.3021 -0.7431,0.6269 -1.0845,0.9723 0.0052,-0.0409 0.0079,-0.0828 0.0079,-0.1256 0,-0.6 -0.3375,-0.825 -1.3875,-1.0125 -1.57503,-0.1875 -2.325,-0.675 -2.325,-1.91249 0,-0.93754 0.71244,-1.68751 1.8374,-1.83754 V 6.8749 C 10.4365,6.68734 10.549,6.57484 10.699,6.57484 h 0.5625 c 0.1875,0.03753 0.3,0.15003 0.3,0.30006 v 0.9 c 0.8624,0.07497 1.5374,0.71244 1.6874,1.53748 v 0.03753 c 0,0.14994 -0.1125,0.26244 -0.2625,0.26244 h -0.5999 c -0.1125,0 -0.225,-0.07497 -0.2626,-0.18747 -0.1874,-0.5625 -0.5624,-0.78751 -1.2374,-0.78751 -0.75,0 -1.12504,0.33742 -1.12504,0.86248 0,0.52505 0.225,0.82505 1.35004,0.97505 1.2151,0.1447 1.9615,0.4456 2.2391,1.1783 z m -1.8177,1.7846 c -0.4055,0.4924 -0.7725,1.0176 -1.0964,1.5712 V 14.4124 C 9.19897,14.2249 8.59894,13.5499 8.449,12.6124 v -0.0375 c 0,-0.15 0.1125,-0.2625 0.26244,-0.2625 H 9.349 c 0.1125,0 0.225,0.075 0.26243,0.225 0.1125,0.5625 0.44997,0.975 1.42507,0.975 0.1791,0 0.3463,-0.0261 0.4964,-0.0746 z M 5.74881,9.16244 C 4.66125,12.05 6.16128,15.3125 9.08628,16.3624 c 0.1125,0.0751 0.225,0.225 0.225,0.3375 v 0.5251 c 0,0.075 0,0.1125 -0.03753,0.1499 C 9.23631,17.525 9.08628,17.5999 8.93625,17.525 6.83628,16.85 5.22375,15.2374 4.54875,13.1375 3.42375,9.575 5.37378,5.78744 8.93625,4.66244 8.97378,4.625 9.04875,4.625 9.08628,4.625 c 0.15003,0.03744 0.225,0.14994 0.225,0.29997 v 0.52497 c 0,0.18756 -0.07497,0.30006 -0.225,0.37503 -1.53747,0.5625 -2.77497,1.76247 -3.33747,3.33747 z"
       fill="#ffffff"
       id="path3207" />
    <g
       clip-path="url(#clip0_19813_262945)"
       id="g3213">
      <path
         fill-rule="evenodd"
         clip-rule="evenodd"
         d="m 30,21 -9,-9 -9,9 9,9 z m -8.6778,5.7696 H 20.5488 V 25.6482 C 19.0146,25.5126 17.745,24.6042 17.7,23.1024 h 1.122 c 0.1146,0.8004 0.606,1.41 1.7064,1.5378 0.3087,0.0578 0.6255,0.0564 0.9336,-0.0042 1.095,-0.1236 1.5234,-0.693 1.5234,-1.4046 0,-0.7092 -0.348,-1.1604 -1.6242,-1.47 l -0.039,-0.006 c -0.231,-0.0774 -0.522,-0.144 -0.8808,-0.2148 l -0.0408,-0.0108 c -1.605,-0.387 -2.4684,-1.1022 -2.4684,-2.3718 0,-1.386 1.089,-2.301 2.6166,-2.436 V 15.6 h 0.774 v 1.1148 c 1.488,0.1356 2.6484,1.0764 2.694,2.5008 h -1.122 c -0.084,-0.87 -0.702,-1.3788 -1.572,-1.4886 v 0.006 c -0.2569,-0.0401 -0.5188,-0.035 -0.774,0.015 v -0.0144 c -0.9798,0.129 -1.4952,0.7218 -1.4952,1.347 0,0.6138 0.366,1.0938 1.4046,1.3692 0.2292,0.078 0.516,0.1488 0.864,0.195 v 0.015 l 0.1998,0.045 c 1.656,0.3996 2.5848,1.083 2.5848,2.436 0,1.554 -1.2636,2.3976 -2.784,2.514 v 1.1148 z"
         fill="#05b595"
         id="path3209" />
      <path
         fill-rule="evenodd"
         clip-rule="evenodd"
         d="m 11.9999,21.02 c 1.8622,-1.0985 3.3175,-1.4405 4.542,-1.4228 0.5133,0.0074 0.9987,0.0775 1.472,0.1918 -0.0548,-0.1934 -0.0826,-0.4034 -0.0826,-0.6312 0,-1.3857 1.0892,-2.301 2.6167,-2.4363 V 15.6 h 0.7735 v 1.115 c 1.4889,0.1354 2.649,1.0764 2.6941,2.5008 H 22.8941 C 22.8104,18.3457 22.1916,17.8365 21.3215,17.727 l -0.7735,0.0064 c -0.9796,0.1289 -1.4953,0.7219 -1.4953,1.3471 0,0.6316 0.3868,1.1215 1.4953,1.3922 l 0.7735,0.1869 0.1998,0.0451 c 1.0613,0.256 1.8236,0.6285 2.2344,1.219 0.4452,0.1031 0.9098,0.1766 1.3974,0.2067 1.4052,0.0869 2.9503,-0.1849 4.754,-1.0371 L 29.9998,21 20.9999,12 20.388,12.6118 c -2.4771,2.4771 -6.3599,6.3598 -8.3881,8.3882 0.0134,-0.008 0.0068,9e-4 10e-5,0.0099 -0.0067,0.009 -0.0135,0.018 -10e-5,0.0101 z"
         fill="#00feb5"
         id="path3211" />
    </g>
  </g>
  <defs
     id="defs3218">
    <clipPath
       id="clip0_19813_262945">
      <rect
         width="18"
         height="18"
         fill="#ffffff"
         transform="translate(12,12)"
         id="rect3215"
         x="0"
         y="0" />
    </clipPath>
  </defs>
</svg>
