<svg width="40" height="40" viewBox="0 0 40 40" fill="none" xmlns="http://www.w3.org/2000/svg">
<circle cx="20" cy="20" r="19" stroke="#7EE989" stroke-width="2"/>
<path d="M20 36C28.8667 36 36 28.8667 36 20C36 11.1333 28.8667 4 20 4C11.1333 4 4 11.1333 4 20C4 28.8667 11.1333 36 20 36Z" fill="#2775CA"/>
<path fill-rule="evenodd" clip-rule="evenodd" d="M10.6668 16.7333C8.73332 21.8667 11.4 27.6667 16.6 29.5333C16.8 29.6667 17 29.9333 17 30.1333V31.0667C17 31.2 17 31.2667 16.9333 31.3333C16.8668 31.6 16.6 31.7333 16.3333 31.6C12.6 30.4 9.73332 27.5333 8.53332 23.8C6.53332 17.4667 10 10.7333 16.3333 8.73327C16.4 8.66671 16.5333 8.66671 16.6 8.66671C16.8668 8.73327 17 8.93327 17 9.19999V10.1333C17 10.4667 16.8668 10.6667 16.6 10.8C13.8668 11.8 11.6668 13.9333 10.6668 16.7333ZM23.0668 8.99999C23.1333 8.73327 23.4 8.59999 23.6668 8.73327C27.3333 9.93327 30.2668 12.8 31.4668 16.6C33.4668 22.9333 30 29.6667 23.6668 31.6667C23.6 31.7333 23.4668 31.7333 23.4 31.7333C23.1333 31.6667 23 31.4667 23 31.2V30.2667C23 29.9333 23.1333 29.7333 23.4 29.6C26.1333 28.6 28.3333 26.4667 29.3333 23.6667C31.2668 18.5333 28.6 12.7333 23.4 10.8667C23.2 10.7333 23 10.4667 23 10.2V9.26671C23 9.13327 23 9.06671 23.0668 8.99999ZM20.2 19.0667C23 19.4 24.4 20.2 24.4 22.5333C24.4 24.3333 23.0667 25.7333 21.0667 26.0667V27.6667C21 28 20.8 28.2 20.5333 28.2H19.5333C19.2 28.1333 19 27.9333 19 27.6667V26.0667C16.8 25.7333 15.7333 24.5333 15.4667 22.8667V22.8C15.4667 22.5333 15.6667 22.3333 15.9333 22.3333H17.0667C17.2667 22.3333 17.4667 22.4667 17.5333 22.7333C17.7333 23.7333 18.3333 24.4667 20.0667 24.4667C21.3333 24.4667 22.2667 23.7334 22.2667 22.6667C22.2667 21.6 21.6667 21.2 19.8 20.8667C17 20.5333 15.6667 19.6667 15.6667 17.4667C15.6667 15.8 16.9333 14.4667 18.9333 14.2V12.6667C19 12.3333 19.2 12.1333 19.4667 12.1333H20.4667C20.8 12.2 21 12.4 21 12.6667V14.2667C22.5333 14.4 23.7333 15.5333 24 17V17.0667C24 17.3333 23.8 17.5333 23.5333 17.5333H22.4667C22.2667 17.5333 22.0667 17.4 22 17.2C21.6667 16.2 21 15.8 19.8 15.8C18.4667 15.8 17.8 16.3998 17.8 17.3333C17.8 18.2667 18.2 18.8 20.2 19.0667Z" fill="white"/>
</svg>
