<svg width="300" height="301" viewBox="0 0 300 301" fill="none" xmlns="http://www.w3.org/2000/svg">
    <path fill-rule="evenodd" clip-rule="evenodd"
          d="M184.91 86.6512C132.325 90.9836 90.2045 132.236 84.529 184.429C48.229 175.695 21.4286 143.144 21.4286 104.082C21.4286 58.2785 58.2784 21.4287 104.082 21.4287C143.902 21.4287 176.953 49.2785 184.91 86.6499V86.6512Z"
          fill="#2775CA"/>
    <path fill-rule="evenodd" clip-rule="evenodd"
          d="M164.363 90.3222C160.909 91.2866 157.522 92.4151 154.212 93.6989C150.426 77.3017 138.654 63.0168 121.62 56.9017C120.587 56.2123 119.554 54.8353 119.554 53.4575V48.6364C119.554 47.947 119.554 47.6032 119.898 47.2585C120.242 45.8807 121.62 45.1922 122.998 45.8807C141.938 52.0797 157.093 66.8881 163.291 86.5191C163.691 87.7842 164.048 89.0525 164.364 90.3223L164.363 90.3222ZM125.651 110.071C122.154 112.842 118.83 115.821 115.697 118.99C115.743 118.621 115.767 118.244 115.767 117.858C115.767 112.347 112.668 110.281 103.025 108.559C88.5613 106.837 81.6735 102.36 81.6735 90.9949C81.6735 82.3849 88.2163 75.4978 98.5482 74.119V66.1984C98.8929 64.4759 99.926 63.4427 101.304 63.4427H106.47C108.191 63.7874 109.224 64.8205 109.224 66.1984V74.4637C117.145 75.1521 123.344 81.0065 124.722 88.5833V88.928C124.722 90.3051 123.688 91.3382 122.311 91.3382H116.801C115.768 91.3382 114.735 90.6496 114.39 89.6165C112.668 84.4507 109.224 82.3843 103.025 82.3843C96.1378 82.3843 92.6937 85.483 92.6937 90.3051C92.6937 95.127 94.76 97.8818 105.092 99.2596C116.245 100.587 123.099 103.349 125.652 110.07L125.651 110.071ZM108.937 126.479C105.223 130.99 101.861 135.801 98.8922 140.87V135.421C87.5274 133.699 82.0175 127.5 80.6399 118.891V118.546C80.6399 117.168 81.6732 116.135 83.0501 116.135H88.9052C89.9383 116.135 90.9716 116.824 91.3154 118.201C92.3485 123.367 95.4481 127.156 104.403 127.156C106.038 127.156 107.565 126.92 108.937 126.479L108.937 126.479ZM55.8429 87.2071C45.8551 113.726 59.6309 143.688 86.4931 153.33C87.5263 154.019 88.5594 155.396 88.5594 156.43V161.252C88.5594 161.94 88.5594 162.284 88.2147 162.628C87.8709 164.006 86.4931 164.695 85.1153 164.006C65.8296 157.808 51.0206 142.999 44.8223 123.713C34.4906 90.9969 52.3992 56.2128 85.1153 45.8806C85.46 45.5367 86.1484 45.5367 86.4931 45.5367C87.8709 45.8806 88.5594 46.9137 88.5594 48.2916V53.1127C88.5594 54.8352 87.8709 55.8684 86.4931 56.5569C72.3735 61.7227 61.009 72.7422 55.8429 87.2071Z"
          fill="white"/>
    <path fill-rule="evenodd" clip-rule="evenodd"
          d="M278.571 195.92L195.918 113.267L113.265 195.92L195.918 278.573L278.571 195.92ZM198.877 248.906H191.775V238.607C177.684 237.361 166.025 229.019 165.612 215.227H175.916C176.968 222.578 181.482 228.176 191.587 229.349C194.422 229.881 197.331 229.867 200.161 229.311C210.218 228.176 214.151 222.947 214.151 216.411C214.151 209.898 210.955 205.755 199.235 202.911L198.877 202.858C196.756 202.146 194.083 201.534 190.788 200.884L190.414 200.785C175.674 197.231 167.744 190.663 167.744 179.003C167.744 166.275 177.746 157.871 191.775 156.632V146.328H198.883V156.566C212.548 157.811 223.205 166.451 223.624 179.532H213.32C212.548 171.543 206.873 166.87 198.883 165.861V165.917C196.523 165.549 194.118 165.595 191.775 166.054V165.922C182.776 167.106 178.043 172.55 178.043 178.292C178.043 183.929 181.404 188.338 190.942 190.866C193.047 191.583 195.681 192.233 198.877 192.658V192.795L200.712 193.209C215.92 196.878 224.45 203.155 224.45 215.58C224.45 229.851 212.846 237.599 198.883 238.668V248.906H198.877Z"
          fill="#05B595"/>
    <path fill-rule="evenodd" clip-rule="evenodd"
          d="M113.289 196.103C130.39 186.015 143.755 182.874 155 183.037C159.718 183.105 164.176 183.749 168.525 184.8C168.021 183.023 167.765 181.095 167.765 179.002C167.765 166.276 177.769 157.87 191.797 156.627V146.328H198.9V156.568C212.574 157.811 223.228 166.454 223.642 179.535H213.343C212.574 171.544 206.891 166.867 198.9 165.861L191.797 165.92C182.8 167.104 178.064 172.55 178.064 178.292C178.064 184.092 181.616 188.591 191.797 191.077L198.9 192.794L200.736 193.207C210.483 195.56 217.484 198.98 221.256 204.404C225.343 205.349 229.608 206.024 234.082 206.301C246.988 207.099 261.178 204.603 277.743 196.777L278.594 195.92L195.94 113.267L190.37 118.837C167.623 141.583 131.928 177.279 113.289 195.92C113.412 195.847 113.351 195.929 113.289 196.011C113.228 196.094 113.166 196.176 113.289 196.104V196.103Z"
          fill="#00FEB5"/>
    <path d="M195.918 113.267C150.272 113.267 113.265 150.271 113.265 195.918C113.265 241.565 150.272 278.573 195.918 278.573C241.566 278.573 278.572 241.565 278.572 195.918C278.572 150.271 241.565 113.267 195.918 113.267Z"
          fill="#4EAF94"/>
    <path fill-rule="evenodd" clip-rule="evenodd"
          d="M204.563 237.246V205.069C224.196 203.987 238.968 199.287 238.968 193.654C238.968 188.024 224.196 183.325 204.565 182.241L204.563 173.268H229.074V154.593H162.051V173.268H186.56V182.285C167.287 183.443 152.871 188.093 152.871 193.654C152.871 199.219 167.287 203.869 186.56 205.025V237.246H204.563ZM204.565 195.206V184.282C221.469 185.059 234.071 188.057 234.072 191.645C234.072 195.821 216.989 199.204 195.92 199.204C174.849 199.204 157.767 195.821 157.767 191.645C157.767 188.11 170.016 185.142 186.561 184.317V186.443H186.562V195.164C189.545 195.337 192.68 195.429 195.918 195.429C198.9 195.429 201.796 195.35 204.565 195.206Z"
          fill="white"/>
</svg>
