<svg width="300" height="300" viewBox="0 0 300 300" fill="none" xmlns="http://www.w3.org/2000/svg">
    <path fill-rule="evenodd" clip-rule="evenodd"
          d="M184.91 86.6516C132.327 90.9871 90.2107 132.239 84.5358 184.431C48.2328 175.699 21.4286 143.147 21.4286 104.082C21.4286 58.2778 58.2778 21.4286 104.082 21.4286C143.902 21.4286 176.954 49.2791 184.91 86.6516Z"
          fill="#2775CA"/>
    <path fill-rule="evenodd" clip-rule="evenodd"
          d="M164.379 90.3259C160.924 91.2908 157.538 92.42 154.229 93.7042C150.444 77.3045 138.671 63.0159 121.634 56.9006C120.601 56.2112 119.568 54.8342 119.568 53.4564V48.6353C119.568 47.9459 119.568 47.6021 119.912 47.2574C120.256 45.8796 121.634 45.1911 123.012 45.8796C141.952 52.0786 157.106 66.8875 163.305 86.5176C163.706 87.7844 164.063 89.0544 164.379 90.3259ZM125.669 110.08C122.171 112.855 118.844 115.838 115.709 119.01C115.757 118.634 115.782 118.249 115.782 117.856C115.782 112.346 112.682 110.28 103.039 108.558C88.5747 106.836 81.6872 102.359 81.6872 90.9941C81.6872 82.3841 88.2301 75.4966 98.5613 74.1188V66.1981C98.9066 64.4756 99.9398 63.4425 101.317 63.4425H106.483C108.205 63.7871 109.238 64.8203 109.238 66.1981V74.4634C117.158 75.1519 123.357 81.0062 124.735 88.5831V88.9278C124.735 90.3048 123.702 91.338 122.324 91.338H116.815C115.782 91.338 114.748 90.6495 114.403 89.6163C112.682 84.4505 109.238 82.3841 103.039 82.3841C96.1515 82.3841 92.7073 85.4828 92.7073 90.3048C92.7073 95.1267 94.7736 97.8818 105.106 99.2593C116.265 100.588 123.119 103.352 125.669 110.08ZM108.976 126.47C105.252 130.992 101.881 135.815 98.9066 140.899V135.42C87.5415 133.698 82.0311 127.499 80.6541 118.889V118.545C80.6541 117.168 81.6872 116.134 83.0642 116.134H88.9194C89.9525 116.134 90.9857 116.823 91.3295 118.201C92.3626 123.366 95.4618 127.155 104.417 127.155C106.062 127.155 107.597 126.915 108.976 126.47ZM55.8564 87.2061C45.8686 113.725 59.6444 143.686 86.5066 153.328C87.5398 154.018 88.573 155.395 88.573 156.428V161.25C88.573 161.939 88.573 162.283 88.2283 162.627C87.8845 164.005 86.5066 164.693 85.1288 164.005C65.8434 157.806 51.0344 142.997 44.8354 123.712C34.5038 90.9949 52.4123 56.2112 85.1288 45.8796C85.4735 45.5358 86.162 45.5358 86.5066 45.5358C87.8845 45.8796 88.573 46.9128 88.573 48.2906V53.1117C88.573 54.8342 87.8845 55.8674 86.5066 56.5559C72.387 61.7217 61.0222 72.7419 55.8564 87.2061Z"
          fill="white"/>
    <path fill-rule="evenodd" clip-rule="evenodd"
          d="M278.572 195.918L195.918 113.265L113.265 195.918L195.918 278.572L278.572 195.918ZM198.877 248.905H191.775V238.606C177.685 237.361 166.026 229.018 165.612 215.226H175.916C176.969 222.577 181.482 228.175 191.587 229.349C194.422 229.88 197.332 229.867 200.161 229.31C210.217 228.175 214.152 222.946 214.152 216.411C214.152 209.898 210.956 205.754 199.236 202.911L198.877 202.856C196.756 202.145 194.084 201.533 190.788 200.883L190.414 200.784C175.674 197.23 167.745 190.662 167.745 179.002C167.745 166.274 177.746 157.87 191.775 156.631V146.327H198.883V156.565C212.548 157.81 223.205 166.45 223.624 179.531H213.32C212.548 171.541 206.873 166.869 198.883 165.86V165.915C196.524 165.547 194.118 165.594 191.775 166.053V165.921C182.777 167.106 178.043 172.55 178.043 178.291C178.043 183.928 181.405 188.336 190.943 190.866C193.048 191.582 195.682 192.232 198.877 192.656V192.794L200.712 193.207C215.92 196.877 224.45 203.153 224.45 215.579C224.45 229.85 212.846 237.598 198.883 238.667V248.905H198.877Z"
          fill="#05B595"/>
    <path fill-rule="evenodd" clip-rule="evenodd"
          d="M113.264 196.102C130.366 186.014 143.731 182.873 154.977 183.036C159.691 183.104 164.148 183.747 168.495 184.797C167.992 183.021 167.736 181.092 167.736 179C167.736 166.274 177.739 157.869 191.767 156.626V146.327H198.871V156.566C212.545 157.81 223.199 166.452 223.613 179.533H213.313C212.545 171.542 206.862 166.866 198.871 165.86L191.767 165.919C182.771 167.103 178.035 172.549 178.035 178.29C178.035 184.091 181.587 188.59 191.767 191.076L198.871 192.792L200.706 193.207C210.452 195.558 217.453 198.978 221.226 204.401C225.314 205.348 229.581 206.023 234.059 206.3C246.964 207.098 261.154 204.602 277.718 196.775L278.57 195.918L195.917 113.265L190.298 118.884C167.549 141.633 131.891 177.29 113.264 195.918C113.387 195.845 113.327 195.927 113.265 196.009C113.204 196.092 113.141 196.175 113.264 196.102Z"
          fill="#00FEB5"/>
</svg>
