<svg width="40" height="40" viewBox="0 0 40 40" fill="none" xmlns="http://www.w3.org/2000/svg">
<circle cx="20" cy="20" r="19" stroke="#7EE989" stroke-width="2"/>
<path fill-rule="evenodd" clip-rule="evenodd" d="M9.8589 8.13672L4.02399 20.393C4.00179 20.4386 3.99475 20.49 4.00391 20.5399C4.01307 20.5898 4.03795 20.6354 4.0749 20.6701L19.8336 35.7708C19.8784 35.8137 19.938 35.8377 20 35.8377C20.062 35.8377 20.1216 35.8137 20.1664 35.7708L35.9251 20.6711C35.9621 20.6364 35.9869 20.5907 35.9961 20.5409C36.0052 20.491 35.9982 20.4395 35.976 20.3939L30.1411 8.13767C30.1223 8.0965 30.092 8.06163 30.0539 8.03723C30.0157 8.01282 29.9714 7.9999 29.9261 8.00002H10.0757C10.0303 7.99945 9.98559 8.01206 9.94711 8.03631C9.90864 8.06057 9.878 8.09544 9.8589 8.13672V8.13672V8.13672Z" fill="#50AF95"/>
<path fill-rule="evenodd" clip-rule="evenodd" d="M22.0246 21.6516C21.9114 21.6601 21.3269 21.6949 20.023 21.6949C18.986 21.6949 18.2497 21.6638 17.9913 21.6516C13.9835 21.4753 10.9921 20.7776 10.9921 19.9423C10.9921 19.107 13.9835 18.4103 17.9913 18.2311V20.9567C18.2534 20.9756 19.0039 21.0199 20.0409 21.0199C21.2854 21.0199 21.9086 20.9681 22.0208 20.9577V18.233C26.0201 18.4112 29.005 19.1089 29.005 19.9423C29.005 20.7757 26.0211 21.4734 22.0208 21.6506L22.0246 21.6516ZM22.0246 17.9511V15.5121H27.6059V11.7928H12.41V15.5121H17.9904V17.9502C13.4546 18.1585 10.0436 19.057 10.0436 20.1337C10.0436 21.2104 13.4546 22.1079 17.9904 22.3172V30.1329H22.0236V22.3144C26.549 22.106 29.9544 21.2085 29.9544 20.1327C29.9544 19.057 26.5518 18.1595 22.0236 17.9502L22.0246 17.9511Z" fill="white"/>
</svg>
