<?xml version="1.0" encoding="UTF-8" standalone="no"?>
<svg
   width="264.56693"
   height="264.56693"
   viewBox="0 0 264.56693 264.56693"
   fill="none"
   version="1.1"
   id="svg4265"
   sodipodi:docname="usdtusdn.svg"
   inkscape:version="1.2 (dc2aedaf03, 2022-05-15)"
   xmlns:inkscape="http://www.inkscape.org/namespaces/inkscape"
   xmlns:sodipodi="http://sodipodi.sourceforge.net/DTD/sodipodi-0.dtd"
   xmlns="http://www.w3.org/2000/svg"
   xmlns:svg="http://www.w3.org/2000/svg">
  <defs
     id="defs4269" />
  <sodipodi:namedview
     id="namedview4267"
     pagecolor="#ffffff"
     bordercolor="#666666"
     borderopacity="1.0"
     inkscape:showpageshadow="2"
     inkscape:pageopacity="0.0"
     inkscape:pagecheckerboard="0"
     inkscape:deskcolor="#d1d1d1"
     showgrid="false"
     inkscape:zoom="1.6152344"
     inkscape:cx="-8.9770254"
     inkscape:cy="132.79807"
     inkscape:window-width="1920"
     inkscape:window-height="1043"
     inkscape:window-x="0"
     inkscape:window-y="37"
     inkscape:window-maximized="1"
     inkscape:current-layer="svg4265" />
  <mask
     id="mask0"
     mask-type="alpha"
     maskUnits="userSpaceOnUse"
     x="1"
     y="1"
     width="27"
     height="27">
    <path
       fill-rule="evenodd"
       clip-rule="evenodd"
       d="M 27.3467,11.4166 C 25.6878,10.5503 23.8011,10.0605 21.8,10.0605 c -6.6274,0 -11.99995,5.3726 -11.99995,12 0,1.8547 0.42075,3.611 1.17195,5.1789 C 5.23546,25.7495 1,20.536 1,14.3333 1,6.96954 6.96954,1 14.3333,1 20.6952,1 26.0165,5.45564 27.3467,11.4166 Z"
       fill="#c4c4c4"
       id="path4247" />
  </mask>
  <mask
     id="mask1"
     mask-type="alpha"
     maskUnits="userSpaceOnUse"
     x="12"
     y="13"
     width="20"
     height="11">
    <path
       fill-rule="evenodd"
       clip-rule="evenodd"
       d="m 17.5423,20.5977 c -1.2423,-0.0179 -2.7214,0.3339 -4.6227,1.4704 -0.1607,-0.2005 0.4925,-0.7622 0.3807,-0.9677 7e-4,-0.2991 1.1997,-1.0377 1.2,-1.2 3,-2.1 6.3,-6.6001 7.5,-6.9001 1.7941,1.5473 4.9627,4.8946 8.4,7.2003 0.005,0.1162 -0.0019,0.1244 0,0.3003 -6e-4,0.3001 0.3009,0.5122 0.3,0.8997 -0.4489,-0.4933 0.7061,0.3976 0.7034,0.4472 -2.0192,1.046 -3.7181,1.3776 -5.25,1.2829 -1.708,-0.1057 -3.1353,-0.743 -4.4267,-1.3195 -0.0492,-0.022 -0.0983,-0.0439 -0.1471,-0.0657 -1.362,-0.6071 -2.5884,-1.1269 -4.0376,-1.1478 z"
       fill="#2e3035"
       id="path4258" />
  </mask>
  <g
     id="g4757"
     transform="matrix(8.0989876,0,0,8.0989876,-5.3993267,-5.3993267)">
    <g
       mask="url(#mask0)"
       id="g4254">
      <path
         d="M 12,3 C 7.02954,3 3,7.02928 3,11.9999 3,16.9703 7.02954,21 12,21 16.9705,21 21,16.9703 21,11.9999 21,7.02928 16.9705,3 12,3 Z"
         fill="#4eaf94"
         id="path4250" />
      <path
         fill-rule="evenodd"
         clip-rule="evenodd"
         d="m 12.9412,16.5 v -3.5037 c 2.1377,-0.1179 3.7462,-0.6297 3.7463,-1.2429 0,-0.6131 -1.6086,-1.1249 -3.7462,-1.2428 l -10e-5,-0.97712 h 2.669 V 7.5 H 8.31209 v 2.03348 h 2.66871 v 0.98182 c -2.09848,0.1261 -3.6683,0.6324 -3.6683,1.2381 0,0.6058 1.56982,1.1121 3.6683,1.2381 V 16.5 Z m 10e-5,-4.5777 v -1.1895 c 1.8407,0.0844 3.213,0.4111 3.213,0.8017 0,0.4547 -1.86,0.8231 -4.1543,0.8231 -2.29444,0 -4.15437,-0.3684 -4.15437,-0.8231 0,-0.3849 1.33367,-0.7081 3.13527,-0.798 v 0.2316 h 2e-4 v 0.9497 c 0.3247,0.0187 0.6661,0.0288 1.0188,0.0288 0.3246,0 0.6399,-0.0087 0.9414,-0.0243 z"
         fill="#ffffff"
         id="path4252" />
    </g>
    <path
       fill-rule="evenodd"
       clip-rule="evenodd"
       d="m 31,22 -9,-9 -9,9 9,9 z m -8.6777,5.7697 H 21.5488 V 26.6482 C 20.0148,26.5129 18.7451,25.6041 18.7,24.1023 h 1.1215 c 0.1153,0.8008 0.6062,1.4105 1.7069,1.5382 0.3569,0.064 0.6726,0.0488 0.9334,-0.0044 1.0955,-0.124 1.5234,-0.6931 1.5234,-1.4049 0,-0.7089 -0.3481,-1.1601 -1.6243,-1.4695 l -0.0386,-0.0064 v 3e-4 c -0.231,-0.0775 -0.5226,-0.1442 -0.8807,-0.2152 l -0.041,-0.0107 C 19.7957,22.143 18.932,21.4275 18.932,20.1578 c 0,-1.3857 1.0893,-2.301 2.6168,-2.4363 V 16.6 h 0.7735 v 1.115 c 1.4888,0.1354 2.649,1.0764 2.6941,2.5008 H 23.8949 C 23.8111,19.3457 23.1924,18.8365 22.3223,18.727 v 0.0062 C 22.0713,18.6909 21.8071,18.7 21.5488,18.7478 v -0.0144 c -0.9797,0.1289 -1.4953,0.7219 -1.4953,1.3471 0,0.6141 0.3656,1.0942 1.4047,1.3691 0.2292,0.0784 0.5161,0.1492 0.8641,0.1954 v 0.0146 l 0.1998,0.0451 c 1.6564,0.3996 2.5845,1.0828 2.5845,2.4363 0,1.5533 -1.2632,2.3977 -2.7843,2.5137 z"
       fill="#05b595"
       id="path4256" />
    <g
       mask="url(#mask1)"
       id="g4263">
      <path
         fill-rule="evenodd"
         clip-rule="evenodd"
         d="m 31,22 -9,-9 -9,9 9,9 z m -8.6775,5.7697 h -0.7734 v -1.1215 c -1.534,-0.1353 -2.8037,-1.0441 -2.8489,-2.5459 h 1.1215 c 0.116,0.8057 0.6123,1.418 1.7274,1.5405 v -0.0096 c 0.3912,0.0764 0.7241,0.0561 0.9898,-0.0067 1.0387,-0.1415 1.4465,-0.7004 1.4465,-1.3953 0,-0.7089 -0.3481,-1.1601 -1.6242,-1.4695 l -0.0387,-0.0064 v 3e-4 C 22.0915,22.6781 21.8,22.6114 21.4418,22.5404 l -0.041,-0.0107 c -1.6049,-0.3867 -2.4685,-1.1022 -2.4685,-2.3719 0,-1.3857 1.0892,-2.301 2.6168,-2.4363 V 16.6 h 0.7734 v 1.115 c 1.4889,0.1354 2.649,1.0764 2.6941,2.5008 h -1.1214 c -0.0838,-0.8701 -0.7026,-1.3793 -1.5727,-1.4888 -0.2488,-0.0341 -0.515,-0.025 -0.7734,0.0174 v -0.011 c -0.9797,0.1289 -1.4953,0.7219 -1.4953,1.3471 0,0.5926 0.3404,1.0604 1.298,1.3395 0.2419,0.0939 0.5617,0.1805 0.9707,0.2318 v 0.0078 l 0.1998,0.0451 c 1.6565,0.3996 2.5846,1.0828 2.5846,2.4363 0,1.5533 -1.2633,2.3977 -2.7844,2.5137 z"
         fill="#00feb5"
         id="path4261" />
    </g>
  </g>
</svg>
