<svg width="64" height="64" viewBox="0 0 64 64" fill="none" xmlns="http://www.w3.org/2000/svg">
<circle cx="32" cy="32" r="32" fill="#FBA435"/>
<path d="M22.2323 11.0327C22.131 11.0597 21.9116 11.1576 21.7428 11.2521C21.2095 11.5459 20.9023 11.6877 20.7268 11.7181C20.4635 11.7687 20.2846 11.8531 20.0651 12.0287C19.8187 12.2245 19.5993 12.5048 19.4643 12.7884C19.2854 13.1632 18.9141 13.4097 18.1984 13.6291C17.5773 13.8216 17.2364 13.9499 17.0575 14.0546C16.8279 14.193 16.1056 14.8075 15.3562 15.4963C14.5123 16.2763 14.4751 16.3472 14.2456 17.4952C14.0329 18.5723 13.9114 18.8896 13.5604 19.3016C13.3173 19.5818 13.1857 19.8182 13.0776 20.1626C13.0135 20.3753 13 20.4867 13 20.8716C13.0034 21.3882 13.0608 21.6617 13.2734 22.1175C13.53 22.6645 13.8236 23.4613 14.0296 24.167C14.1781 24.6769 14.249 24.8288 14.5427 25.2644C14.8633 25.7472 15.6262 26.6892 15.7781 26.7939C16.0279 26.9661 16.2845 27.0201 16.8279 27.0201C17.0946 27.0201 17.3613 27.01 17.422 26.9965C17.5841 26.9661 17.9554 27.0708 18.401 27.2666C18.985 27.5266 19.0322 27.5401 19.4305 27.5367C19.6938 27.5367 19.9301 27.5063 20.3521 27.4219L20.9192 27.3105L21.0947 27.3814C21.5302 27.5603 21.7529 27.5806 22.3943 27.5029L22.5732 27.4793L22.7217 27.638C22.8095 27.7359 22.9479 27.9588 23.0728 28.212C23.4002 28.8704 23.6568 29.0696 24.2576 29.1101C24.6222 29.1371 24.7842 29.2013 25.0205 29.4208C25.1016 29.495 25.2096 29.6436 25.2602 29.7483C25.3412 29.9103 25.3547 29.9745 25.3513 30.2075C25.3446 30.589 25.2703 30.8355 24.9665 31.477C24.6256 32.1928 24.5817 32.3515 24.5817 32.7567C24.5817 33.2159 24.6458 33.3881 25.0273 33.9486C25.5843 34.769 25.8678 35.4376 25.9421 36.1061C26.0366 36.9401 26.1547 39.0943 26.1176 39.2293C26.0332 39.5231 25.8408 39.7966 25.2062 40.5225C24.8079 40.9817 24.6897 41.2113 24.6087 41.7043C24.4737 42.5281 24.5952 43.1663 25.1859 44.7262C25.321 45.0773 25.4492 45.4521 25.4729 45.5534C25.4999 45.6682 25.5235 46.1713 25.5404 46.8871C25.5708 48.2275 25.5573 48.1668 25.9725 49.1324C26.4248 50.1791 26.5531 50.7126 26.4822 51.2258C26.4619 51.3643 26.4552 51.5533 26.4653 51.6479C26.5092 52.0396 26.8501 52.4819 27.1877 52.5865C27.2889 52.6203 27.5691 52.6439 27.9674 52.6574C28.7978 52.6878 29.0645 52.7283 29.1354 52.8364C29.2569 53.0187 29.3244 53.0255 30.5329 52.9681C31.1371 52.9377 31.9135 52.9174 32.2578 52.9208C32.8114 52.9276 32.9161 52.9174 33.1794 52.8499C33.8748 52.6709 34.6174 52.2759 35.5153 51.6074C36.106 51.1684 36.5145 50.7396 36.7474 50.3176C36.9803 49.8955 37.193 49.7233 37.7601 49.5038C38.2867 49.3013 38.55 49.102 38.6715 48.8184C38.7356 48.6699 38.7491 48.5551 38.7694 47.9878C38.7998 47.2281 38.8301 47.1167 39.0799 46.8736C39.458 46.5056 39.9137 46.2793 40.9838 45.9248C41.9019 45.6209 42.037 45.5635 42.2294 45.3846C42.5838 45.0571 42.7526 44.5135 42.8944 43.2405C42.9248 42.9502 42.9248 42.7172 42.8944 42.1938C42.8032 40.5833 42.8741 39.7392 43.1712 39.0166C43.3332 38.6148 43.6539 38.2333 44.0725 37.9395C44.1737 37.8652 44.7071 37.4736 45.2539 37.065C45.8008 36.6565 46.4793 36.1804 46.7561 36.0048C47.8329 35.3295 48.2987 34.9581 48.6937 34.4618C49.0245 34.0499 49.8785 32.6284 50.2059 31.9463C50.3713 31.5986 50.3916 31.5412 50.3747 31.3994C50.3207 30.9537 49.8684 30.562 49.4498 30.6059C49.362 30.6126 49.1426 30.6498 48.9671 30.6802C48.7747 30.7173 48.4844 30.741 48.2413 30.741C47.897 30.741 47.7958 30.7274 47.5662 30.6532C47.2422 30.5485 47.0092 30.3898 46.8573 30.1771C46.7257 29.988 46.6784 29.8698 46.4995 29.2452C46.2902 28.5024 46.2497 28.4348 45.713 27.9318C45.3046 27.5502 44.94 26.8918 44.7273 26.1389C44.6699 25.9397 44.5417 25.6391 44.3898 25.3454C44.0995 24.7849 44.005 24.5114 44.005 24.2346C44.005 23.7315 43.8294 23.1575 43.4446 22.3843C43.1712 21.8373 43.0058 21.4355 42.9248 21.1282C42.891 20.9965 42.7188 20.5002 42.5433 20.0275C42.199 19.099 41.8783 18.157 41.8142 17.8801C41.7095 17.4344 41.2538 17.2048 40.3593 17.1406C39.7281 17.0968 38.9854 16.776 37.6251 15.969L36.9634 15.5774L35.6571 15.4322C34.4317 15.2937 34.3473 15.287 34.2629 15.3376L34.1718 15.395L33.9591 15.1519C33.5608 14.6961 33.1625 14.4294 32.7642 14.3551C32.511 14.3078 32.3355 14.2133 32.1498 14.0309C31.8123 13.7 31.7481 13.3894 31.9169 12.8998C32.0992 12.3765 32.0958 12.1469 31.9135 11.9409C31.8123 11.8227 31.8089 11.8227 31.5355 11.8227C31.0392 11.8227 30.7219 11.7687 29.3717 11.4513C28.5447 11.2555 28.0316 11.2116 27.532 11.2926C27.2923 11.3332 27.2181 11.3264 26.148 11.1745C25.5269 11.0867 24.9564 11.0158 24.8788 11.0158C24.6931 11.0124 24.4636 11.0934 24.1159 11.2893L23.8256 11.4513L23.5994 11.4007C23.3024 11.3298 23.0829 11.2454 22.8838 11.1238C22.6812 10.9989 22.4753 10.9685 22.2323 11.0327Z" fill="black"/>
<path d="M15.4166 15.2977C15.3899 15.3177 15.3866 15.3344 15.4066 15.3478C15.4267 15.3578 15.4534 15.3512 15.4634 15.3311C15.4935 15.2843 15.4701 15.2643 15.4166 15.2977Z" fill="black"/>
<path d="M46.1316 44.4088C45.713 44.4223 45.2405 44.4392 45.0751 44.4459C44.913 44.4527 44.7814 44.4426 44.7814 44.429C44.7814 44.3716 44.7206 44.4257 44.4776 44.7093C43.8868 45.3947 43.502 45.7324 43.0834 45.9282C42.8809 46.0227 42.8235 46.0329 42.513 46.0362C42.2058 46.043 42.1416 46.0531 41.9695 46.1375C41.7163 46.2625 41.4767 46.5022 41.3551 46.7487C41.2775 46.9074 41.2539 47.012 41.237 47.2754C41.1999 47.8055 41.0885 48.0418 40.5787 48.6766C40.0488 49.335 39.9374 49.5781 39.9374 50.0778C39.9374 50.3479 39.9509 50.4256 40.015 50.5607C40.1298 50.7903 40.3593 51.0064 40.5787 51.0874C40.8184 51.1786 40.8927 51.1752 41.1458 51.0773L41.3551 50.9928L42.4691 51.0367L43.583 51.0806L43.7484 50.9962C43.9442 50.8882 44.113 50.6991 44.4742 50.1622C44.6261 49.9394 44.9299 49.5072 45.1561 49.2C45.6928 48.4673 46.5941 47.1066 46.935 46.5224C47.2759 45.9383 47.2962 45.8539 47.2658 45.128C47.2557 44.8308 47.2354 44.5405 47.2253 44.4797C47.2051 44.375 47.1983 44.3716 47.0464 44.3784C46.962 44.3784 46.5502 44.3953 46.1316 44.4088Z" fill="black"/>
</svg>
