<?xml version="1.0" encoding="UTF-8"?>
<!DOCTYPE svg PUBLIC "-//W3C//DTD SVG 1.1//EN" "http://www.w3.org/Graphics/SVG/1.1/DTD/svg11.dtd">
<!-- Creator: CorelDRAW 2019 (64-Bit) -->
<svg xmlns="http://www.w3.org/2000/svg" xml:space="preserve" width="220mm" height="220mm" version="1.1" style="shape-rendering:geometricPrecision; text-rendering:geometricPrecision; image-rendering:optimizeQuality; fill-rule:evenodd; clip-rule:evenodd"
viewBox="0 0 22000 22000"
 xmlns:xlink="http://www.w3.org/1999/xlink"
 xmlns:xodm="http://www.corel.com/coreldraw/odm/2003">
 <defs>
  <style type="text/css">
   <![CDATA[
    .fil4 {fill:#01FBB3;fill-rule:nonzero}
    .fil3 {fill:#04B494;fill-rule:nonzero}
    .fil5 {fill:#19202E;fill-rule:nonzero}
    .fil2 {fill:#2775CA;fill-rule:nonzero}
    .fil1 {fill:#5980E9;fill-rule:nonzero}
    .fil0 {fill:#E04A50;fill-rule:nonzero}
   ]]>
  </style>
 </defs>
 <g id="Layer_x0020_1">
  <metadata id="CorelCorpID_0Corel-Layer"/>
  <path class="fil0" d="M15291.87 13125.69c-1232.43,-710.47 -3715.06,-2142.85 -3715.06,-2142.85 0,0 4941.56,-2855.76 7404.57,-4278.54l4.88 3.06 5.54 3.48c-1217.29,2108.09 -3699.93,6414.85 -3699.93,6414.85z"/>
  <path class="fil1" d="M2503.5 6080.11c395.2,-232.03 811.47,-470.84 1174.98,-679.99 -3.48,3161.21 -6.96,6322.63 -10.42,9484.03 -377.83,218.16 -1164.56,654.66 -1164.56,654.66l0 -9458.7z"/>
  <path class="fil2" d="M4265.66 5058.89c968.69,-559.57 2936.93,-1679.97 2936.93,-1679.97 -0.41,3156.71 -0.82,6313.63 -1.23,9470.34 -957.85,552.23 -2946.12,1684.26 -2946.12,1684.26 3.68,-3295.33 6.74,-6095.68 10.42,-9474.63z"/>
  <path class="fil2" d="M7789.98 3023.99c968.68,-559.17 1937.37,-1118.34 2906.05,-1677.5 3.47,3153.64 6.95,6307.27 10.43,9460.72l-2926.7 1704.52c3.26,-3162.66 6.74,-6325.09 10.22,-9487.74z"/>
  <path class="fil3" d="M11283.43 1328.04c885.56,581.35 2002.15,1157.37 2936.91,1697.39 3.48,1921.41 7.16,3843.05 10.43,5764.67 -950.28,549.16 -2947.35,1700.62 -2947.35,1700.62l0.01 -9162.68z"/>
  <path class="fil4" d="M14807.74 3374.42l4412.23 2537.23 -4411.21 2548.89c0,-1695.37 -1.02,-3390.75 -1.02,-5086.12z"/>
  <path class="fil0" d="M10706.46 20608.97l-7893.83 -4556.38 1163.74 -668.35c0,0 4494.22,2608.39 6730.09,3912.57l0 1312.16z"/>
  <path class="fil2" d="M10705.64 18635.62l-6160.29 -3594.85c0,0 1977.44,-1144.51 2947.96,-1704.91 0,0 2167.38,1270.87 3213.15,1881.76l-0.82 3418z"/>
  <path class="fil2" d="M10706.46 14557.44l-2638.03 -1541.34c0,0 1768.91,-1032.28 2638.03,-1533.78l0 3075.12z"/>
  <path class="fil5" d="M11283.42 11477.61c1300.5,735.4 3709.54,2149.58 3709.54,2149.58l-3709.54 6412.99 0 -8562.57z"/>
  <path class="fil1" d="M11791.89 20326.21l3709.33 -6415.03c1232.02,710.87 3712.21,2142.85 3712.21,2142.85 0,0 -7406.42,4266.88 -7421.54,4272.18z"/>
  <path class="fil5" d="M19496.6 15557c-1232.64,-710.25 -3698.71,-2149.59 -3698.71,-2149.59 0,0 2465.46,-4290.59 3698.71,-6426.68 11.04,3039.34 7.15,5628.31 0,8576.27z"/>
 </g>
</svg>
