<svg width="300" height="300" viewBox="0 0 300 300" fill="none" xmlns="http://www.w3.org/2000/svg">
    <path d="M21.4286 144.943C21.4286 144.461 82.3536 83.7538 82.8373 83.7538C83.5094 83.7538 97.0832 97.5631 97.0832 98.2469C97.0832 98.583 96.3163 99.5922 95.3791 100.49C90.3829 105.273 82.2654 115.678 77.8827 122.915C74.9624 127.738 70.9872 135.618 69.0088 140.507C68.182 142.55 67.3592 144.454 67.1804 144.738C66.9267 145.14 61.8635 145.253 44.1419 145.253C31.6496 145.253 21.4286 145.114 21.4286 144.943V144.943Z"
          fill="#5980E9"/>
    <path d="M227.299 198.083C225.134 197.889 221.657 197.435 219.573 197.074C217.488 196.713 215.632 196.458 215.448 196.508C215.263 196.557 213.717 195.21 212.012 193.515C209.688 191.205 207.979 189.955 205.191 188.528C200.003 185.874 192.725 183.526 186.794 182.593C185.771 182.432 183.098 181.758 180.855 181.094C170.344 177.986 165.953 173.819 165.946 166.947C165.939 160.35 170.767 155.154 178.621 153.305C182.002 152.509 189.246 152.506 192.295 153.299C199.09 155.066 203.532 159.297 205.128 165.521L205.698 167.748H211.232H216.766L216.713 165.631C216.641 162.761 215.202 158.634 213.19 155.525C209.262 149.458 202.752 145.16 194.752 143.352C193.217 143.005 191.403 142.588 190.721 142.425L189.481 142.129L189.274 136.571L189.068 131.014H185.347H181.626L181.511 136.474C181.38 142.68 181.499 142.476 177.716 142.986C170.857 143.912 163.289 147.969 159.473 152.767C155.616 157.616 154.342 161.957 154.641 169.227L154.837 174.009L152.608 173.491C145.317 171.799 134.529 171.737 126.229 173.338C117.661 174.991 106.879 179.062 97.5683 184.159C95.2551 185.425 93.3624 186.339 93.3624 186.19C93.3624 185.607 185.379 94.0725 185.965 94.0725C186.739 94.0725 278.571 185.698 278.571 186.47C278.571 187.137 276.645 188.726 275.715 188.825C275.354 188.864 272.639 189.856 269.683 191.03C264.324 193.158 258.448 195.008 253.353 196.171C245.725 197.913 234.559 198.732 227.299 198.083Z"
          fill="#01FBB3"/>
    <path d="M51.9167 52.4869C35.1483 35.7442 21.4286 21.9068 21.4286 21.7371C21.4286 21.5674 48.9619 21.4286 82.6137 21.4286C131.526 21.4286 143.799 21.5328 143.799 21.9483C143.799 22.5547 83.4192 82.9283 82.8128 82.9283C82.5884 82.9283 68.6852 69.2297 51.9167 52.4869V52.4869Z"
          fill="#E04A50"/>
    <path d="M139.561 232.859C114.379 207.717 93.7758 186.925 93.7758 186.654C93.7758 186.037 102.469 181.429 108.287 178.962C123.685 172.433 137.834 170.634 152.167 173.384L154.541 173.839L156.051 176.985C158.202 181.468 161.772 184.884 167.173 187.631C171.959 190.065 174.657 190.99 182.04 192.726C194.957 195.763 200.22 197.86 203.299 201.195C207.539 205.788 207.036 214.73 202.291 219.097C198.841 222.272 194.879 223.582 187.621 223.95C177.736 224.45 169.91 221.474 166.444 215.897C165.929 215.067 165.033 212.996 164.453 211.293L163.398 208.198H157.629H151.86L151.953 210.468C152.231 217.314 156.764 224.45 163.729 229.004C167.842 231.695 172.008 233.136 180.076 234.66C180.983 234.831 181.006 234.968 181.006 240.111C181.006 243.664 181.168 245.548 181.502 245.882C182.169 246.547 188.525 246.547 189.192 245.882C189.526 245.548 189.688 243.666 189.688 240.122V234.857L191.238 234.614C204.77 232.49 213.375 226.646 216.841 217.228C218.867 211.725 218.539 203.181 216.121 198.449C215.648 197.524 215.346 196.683 215.449 196.58C215.552 196.477 217.29 196.679 219.311 197.029C236.05 199.928 252.128 197.984 270.088 190.888C273.251 189.638 275.934 188.711 276.051 188.827C276.392 189.168 186.651 278.571 185.967 278.571C185.625 278.571 164.742 258.001 139.561 232.859V232.859Z"
          fill="#04B494"/>
</svg>
