<?xml version="1.0" encoding="UTF-8" standalone="no"?>
<svg
   width="264.56693"
   height="264.56693"
   viewBox="0 0 264.56693 264.56693"
   fill="none"
   version="1.1"
   id="svg7926"
   sodipodi:docname="wxusdn.svg"
   xml:space="preserve"
   inkscape:version="1.2 (dc2aedaf03, 2022-05-15)"
   xmlns:inkscape="http://www.inkscape.org/namespaces/inkscape"
   xmlns:sodipodi="http://sodipodi.sourceforge.net/DTD/sodipodi-0.dtd"
   xmlns="http://www.w3.org/2000/svg"
   xmlns:svg="http://www.w3.org/2000/svg"><defs
     id="defs7930" /><sodipodi:namedview
     id="namedview7928"
     pagecolor="#ffffff"
     bordercolor="#666666"
     borderopacity="1.0"
     inkscape:showpageshadow="2"
     inkscape:pageopacity="0.0"
     inkscape:pagecheckerboard="0"
     inkscape:deskcolor="#d1d1d1"
     showgrid="false"
     inkscape:zoom="1.6152344"
     inkscape:cx="69.03023"
     inkscape:cy="157.56227"
     inkscape:window-width="1920"
     inkscape:window-height="1043"
     inkscape:window-x="0"
     inkscape:window-y="37"
     inkscape:window-maximized="1"
     inkscape:current-layer="g8478" /><mask
     id="mask0"
     mask-type="alpha"
     maskUnits="userSpaceOnUse"
     x="0"
     y="0"
     width="32"
     height="32"><circle
       cx="16"
       cy="16"
       r="16"
       fill="#c4c4c4"
       id="circle7893" /></mask><g
     id="g8478"
     transform="translate(263.09433,261.49576)"><g
       id="g8541"
       transform="matrix(0.36458465,0,0,0.36399945,-148.27654,-147.41381)"><path
         style="fill:#5980e9"
         d="m -263.09433,37.75171 c 0,-1.16786 147.37078,-148.24747 148.54094,-148.24747 1.62574,0 34.45906,33.45702 34.45906,35.11365 0,0.81425 -1.8549,3.25928 -4.122,5.4334 -12.08515,11.58953 -31.72042,36.79716 -42.32182,54.33248 -7.06393,11.68413 -16.67929,30.77635 -21.46485,42.62047 -2.00002,4.95 -3.99031,9.5625 -4.42288,10.25 -0.61364,0.97529 -12.86081,1.25 -55.72747,1.25 -30.21754,0 -54.94098,-0.33864 -54.94098,-0.75253 z"
         id="path8486"
         sodipodi:nodetypes="sssssssss" /><path
         style="fill:#01fbb3"
         d="m 234.88378,166.4982 c -5.23703,-0.4693 -13.64722,-1.56904 -18.6893,-2.44385 -5.04208,-0.87482 -9.53223,-1.49241 -9.97811,-1.37243 -0.44589,0.11997 -4.1857,-3.14297 -8.3107,-7.25099 -5.6202,-5.59707 -9.75576,-8.6252 -16.5,-12.08158 -12.54765,-6.43059 -30.15387,-12.11988 -44.5,-14.37977 -2.475,-0.38987 -8.93906,-2.02362 -14.36458,-3.63055 C 97.11528,117.80844 86.49312,107.71295 86.47666,91.06279 86.46086,75.0804 98.13971,62.49076 117.13651,58.01188 c 8.17834,-1.9282 25.70181,-1.93667 33.07586,-0.016 16.43564,4.28094 27.18124,14.5323 31.04066,29.61296 l 1.38078,5.39537 h 13.38593 13.38593 l -0.12866,-5.13036 c -0.17437,-6.95343 -3.6545,-16.95048 -8.52282,-24.48271 -9.50123,-14.70025 -25.2476,-25.11383 -44.59793,-29.49404 -3.71283,-0.84045 -8.10059,-1.85097 -9.75059,-2.24561 l -3,-0.71753 -0.5,-13.46488 -0.5,-13.46487 h -9 -9 l -0.27889,13.23028 c -0.31692,15.03467 -0.0295,14.54057 -9.17882,15.77699 C 98.35663,35.25359 80.05034,45.08393 70.81913,56.70832 61.49097,68.45482 58.40845,78.97219 59.13085,96.58808 l 0.47504,11.58388 -5.39151,-1.2533 c -17.63602,-4.0996 -43.73225,-4.25165 -63.80871,-0.37176 -20.72558,4.00533 -46.80503,13.86774 -69.32648,26.21704 -5.59544,3.06817 -10.17352,5.28215 -10.17352,4.91996 0,-1.413 222.57739,-223.17966 223.99556,-223.17966 1.87163,0 224.00444,221.98735 224.00444,223.85775 0,1.61755 -4.65896,5.46626 -6.90844,5.70699 -0.87536,0.0937 -7.44156,2.49718 -14.59156,5.34112 -12.96277,5.156 -27.17566,9.63825 -39.5,12.45692 -18.45147,4.22 -45.4613,6.20483 -63.02189,4.63118 z"
         id="path8484" /><path
         style="fill:#e04a50"
         d="m -189.34686,-186.24828 c -40.56111,-40.56388 -73.74747,-74.08888 -73.74747,-74.5 0,-0.41111 66.6,-0.74748 148,-0.74748 118.31306,0 148,0.25259 148,1.25925 0,1.46906 -146.05165,147.74075 -147.5185,147.74075 -0.54261,0 -34.17293,-33.18863 -74.73403,-73.75252 z"
         id="path8482" /><path
         style="fill:#04b494"
         d="M 22.65398,250.75256 C -38.25759,189.83913 -88.09433,139.46424 -88.09433,138.80835 c 0,-1.49512 21.0271,-12.6591 35.10168,-18.63663 37.24494,-15.81809 71.47124,-20.17578 106.14037,-13.51379 l 5.74205,1.10339 3.65223,7.62146 c 5.20434,10.86042 13.83841,19.13848 26.90206,25.79282 11.57781,5.89749 18.10422,8.13762 35.96161,12.34346 31.24583,7.35915 43.97625,12.4387 51.42414,20.51871 10.25682,11.12734 9.03896,32.79339 -2.438,43.37248 -8.34479,7.69196 -17.92789,10.86716 -35.48614,11.75774 -23.91025,1.21276 -42.83902,-5.99705 -51.22294,-19.51039 -1.24664,-2.00935 -3.41469,-7.02836 -4.8179,-11.15336 l -2.55128,-7.5 H 66.35961 52.40567 l 0.22339,5.5 c 0.67371,16.58753 11.63913,33.87589 28.48489,44.91001 9.95063,6.51776 20.02652,10.00933 39.54172,13.70231 2.19376,0.41514 2.25,0.74524 2.25,13.20673 0,8.60741 0.39185,13.1728 1.2,13.98095 1.61252,1.61252 16.98748,1.61252 18.6,0 0.80789,-0.80789 1.2,-5.36771 1.2,-13.95469 v -12.75468 l 3.75,-0.58967 c 32.73309,-5.14707 53.54789,-19.30378 61.93212,-42.12171 4.89919,-13.33332 4.10646,-34.03269 -1.74244,-45.49748 -1.14356,-2.24157 -1.87492,-4.27986 -1.62525,-4.52953 0.24967,-0.24967 4.45325,0.23994 9.34127,1.08802 40.48852,7.02488 79.37993,2.31377 122.82303,-14.87816 7.6513,-3.02788 14.14203,-5.27467 14.42383,-4.99287 0.82594,0.82594 -216.24885,217.43077 -217.90252,217.43077 -0.82688,0 -51.34016,-49.83826 -112.25173,-110.75168 z"
         id="path8480" /></g></g></svg>
