<?xml version="1.0" encoding="UTF-8" standalone="no"?>
<svg
   fill="none"
   viewBox="0 0 264.56693 264.56818"
   version="1.1"
   id="svg3741"
   sodipodi:docname="usdcusdt.svg"
   width="264.56693"
   height="264.56818"
   inkscape:version="1.2 (dc2aedaf03, 2022-05-15)"
   xmlns:inkscape="http://www.inkscape.org/namespaces/inkscape"
   xmlns:sodipodi="http://sodipodi.sourceforge.net/DTD/sodipodi-0.dtd"
   xmlns="http://www.w3.org/2000/svg"
   xmlns:svg="http://www.w3.org/2000/svg">
  <sodipodi:namedview
     id="namedview3743"
     pagecolor="#ffffff"
     bordercolor="#666666"
     borderopacity="1.0"
     inkscape:showpageshadow="2"
     inkscape:pageopacity="0.0"
     inkscape:pagecheckerboard="0"
     inkscape:deskcolor="#d1d1d1"
     showgrid="false"
     inkscape:zoom="2.1536458"
     inkscape:cx="105.1705"
     inkscape:cy="138.13785"
     inkscape:window-width="1920"
     inkscape:window-height="1043"
     inkscape:window-x="0"
     inkscape:window-y="37"
     inkscape:window-maximized="1"
     inkscape:current-layer="svg3741" />
  <g
     id="g4232"
     transform="matrix(10.79865,0,0,10.79865,2.6996625,2.7008281)">
    <path
       d="M 14.851,6.8264 C 10.5565,7.18022 7.1167,10.5492 6.6532,14.8116 3.6887,14.0983 1.5,11.44 1.5,8.2499 c 0,-3.7406 3.0094,-6.75 6.75,-6.75 3.252,0 5.9512,2.2744 6.601,5.3264 z"
       clip-rule="evenodd"
       fill="#2775ca"
       fill-rule="evenodd"
       id="path3722" />
    <path
       d="M 13.173,7.1262 C 12.8909,7.20496 12.6143,7.29712 12.344,7.40196 12.0348,6.06286 11.0734,4.89626 9.6823,4.39686 9.59793,4.34056 9.51355,4.2281 9.51355,4.11558 V 3.72186 c 0,-0.0563 0,-0.08438 0.02815,-0.11253 0.02808,-0.11252 0.1406,-0.16875 0.25312,-0.11252 1.5468,0.50625 2.7844,1.7156 3.2906,3.3188 0.0327,0.10332 0.0618,0.2069 0.0876,0.3106 z M 10.0115,8.739 C 9.72594,8.96534 9.45448,9.20864 9.19859,9.46738 9.20237,9.43729 9.2043,9.40645 9.2043,9.37492 9.2043,8.92489 8.95118,8.75614 8.1637,8.61554 6.9825,8.47487 6.42,8.10929 6.42,7.18114 6.42,6.47799 6.95433,5.91554 7.7981,5.80294 V 5.15609 C 7.82625,5.01542 7.91062,4.93104 8.02314,4.93104 h 0.42188 c 0.1406,0.02815 0.22497,0.11252 0.22497,0.22505 v 0.675 c 0.64685,0.05622 1.1531,0.53433 1.2656,1.1531 v 0.02815 c 0,0.11246 -0.08438,0.19683 -0.1969,0.19683 H 9.28874 c -0.08437,0 -0.16875,-0.05623 -0.1969,-0.1406 C 8.95124,6.64669 8.66997,6.47794 8.16372,6.47794 c -0.56247,0 -0.84374,0.25306 -0.84374,0.64686 0,0.39379 0.16875,0.61877 1.0125,0.73129 0.91089,0.10842 1.4706,0.33393 1.6791,0.88284 z m -1.365,1.34 c -0.30329,0.3684 -0.57787,0.7613 -0.82031,1.1753 v -0.445 C 6.89807,10.6686 6.44809,10.1624 6.33559,9.4593 V 9.43115 c 0,-0.11252 0.08438,-0.1969 0.19683,-0.1969 h 0.47817 c 0.08437,0 0.16875,0.0563 0.19683,0.16875 0.08437,0.42188 0.3375,0.73129 1.0688,0.73129 0.13352,0 0.25827,-0.0193 0.37029,-0.0553 z M 4.3105,6.8718 c -0.81567,2.1657 0.30935,4.6126 2.5031,5.4 0.08438,0.0563 0.16875,0.1688 0.16875,0.2532 v 0.3938 c 0,0.0562 0,0.0843 -0.02815,0.1124 C 6.92612,13.1437 6.8136,13.2 6.70108,13.1437 5.12608,12.6375 3.91668,11.4281 3.41048,9.8531 2.56673,7.1813 4.02926,4.3406 6.70108,3.4968 6.72923,3.46872 6.78545,3.46872 6.8136,3.46872 6.92612,3.4968 6.98235,3.58117 6.98235,3.6937 V 4.08742 C 6.98235,4.22809 6.92612,4.31247 6.8136,4.3687 5.6605,4.79057 4.7324,5.6905 4.3105,6.8718 Z"
       clip-rule="evenodd"
       fill="#ffffff"
       fill-rule="evenodd"
       id="path3724" />
    <g
       clip-path="url(#a)"
       clip-rule="evenodd"
       fill-rule="evenodd"
       id="g3730">
      <path
         d="M 22.5,15.75 15.75,9 9,15.75 15.75,22.5 Z m -6.5084,4.3272 h -0.58 v -0.8411 c -1.1507,-0.1017 -2.1029,-0.783 -2.1366,-1.9093 h 0.8415 c 0.0859,0.6003 0.4545,1.0575 1.2798,1.1533 0.2315,0.0434 0.4691,0.0423 0.7002,-0.0031 0.8213,-0.0927 1.1425,-0.5198 1.1425,-1.0535 0,-0.5319 -0.261,-0.8703 -1.2181,-1.1025 L 15.9916,16.3166 C 15.8184,16.2585 15.6001,16.2085 15.331,16.1554 l -0.0305,-0.0081 c -1.2038,-0.2902 -1.8514,-0.8266 -1.8514,-1.7788 0,-1.0395 0.8168,-1.7258 1.9625,-1.827 V 11.7 h 0.5805 v 0.8361 c 1.116,0.1017 1.9863,0.8073 2.0205,1.8756 h -0.8415 c -0.063,-0.6525 -0.5265,-1.0341 -1.179,-1.1165 v 0.0046 C 15.7994,13.2697 15.603,13.2735 15.4116,13.311 v -0.0108 c -0.7349,0.0967 -1.1214,0.5413 -1.1214,1.0102 0,0.4604 0.2745,0.8204 1.0534,1.0269 0.1719,0.0585 0.387,0.1116 0.648,0.1463 v 0.0112 l 0.1499,0.0338 c 1.242,0.2997 1.9386,0.8123 1.9386,1.827 0,1.1655 -0.9477,1.7982 -2.088,1.8855 v 0.8361 z"
         fill="#05b595"
         id="path3726" />
      <path
         d="m 9.0019,15.765 c 1.3966,-0.8239 2.4881,-1.0804 3.4064,-1.0671 0.3853,0.0056 0.7494,0.0582 1.1046,0.144 -0.0412,-0.1451 -0.0621,-0.3026 -0.0621,-0.4735 0,-1.0393 0.817,-1.7258 1.9626,-1.8273 V 11.7 h 0.5801 v 0.8363 c 1.1167,0.1015 1.9868,0.8073 2.0206,1.8756 H 17.173 C 17.1102,13.7593 16.6461,13.3774 15.9935,13.2952 L 15.4134,13.3 c -0.7347,0.0967 -1.1215,0.5415 -1.1215,1.0104 0,0.4737 0.2901,0.8411 1.1215,1.0441 l 0.5801,0.1402 0.1499,0.0338 c 0.796,0.1921 1.3678,0.4714 1.6758,0.9144 0.3338,0.0772 0.6821,0.1323 1.0475,0.1549 1.054,0.0652 2.2128,-0.1387 3.5656,-0.7778 L 22.5018,15.75 15.7518,9 15.2969,9.45494 c -1.8577,1.8576 -4.7728,4.7727 -6.295,6.2951 0.01008,-0.006 0.00509,7e-4 6e-5,0.0074 -0.00503,0.0068 -0.0101,0.0135 -6e-5,0.0076 z"
         fill="#00feb5"
         id="path3728" />
    </g>
    <path
       d="M 15.75,9 C 12.0222,9 9,12.022 9,15.7499 9,19.4777 12.0222,22.5 15.75,22.5 19.4779,22.5 22.5,19.4777 22.5,15.7499 22.5,12.022 19.4778,9 15.75,9 Z"
       fill="#4eaf94"
       id="path3732" />
    <path
       d="m 16.456,19.125 v -2.6278 c 1.6033,-0.0884 2.8097,-0.4722 2.8097,-0.9322 0,-0.4598 -1.2064,-0.8436 -2.8096,-0.9321 l -10e-5,-0.7328 h 2.0017 V 12.375 h -5.4735 v 1.5251 h 2.0015 v 0.7364 c -1.5739,0.0946 -2.7512,0.4743 -2.7512,0.9285 0,0.4544 1.1773,0.8342 2.7512,0.9286 v 2.6314 z m 10e-5,-3.4333 v -0.8921 c 1.3805,0.0634 2.4097,0.3083 2.4098,0.6013 0,0.341 -1.3951,0.6173 -3.1158,0.6173 -1.7208,0 -3.1158,-0.2763 -3.1158,-0.6173 0,-0.2887 1.0003,-0.5311 2.3515,-0.5985 v 0.1737 h 1e-4 v 0.7122 c 0.2436,0.0141 0.4996,0.0216 0.7641,0.0216 0.2435,0 0.48,-0.0064 0.7061,-0.0182 z"
       clip-rule="evenodd"
       fill="#ffffff"
       fill-rule="evenodd"
       id="path3734" />
  </g>
  <defs
     id="defs3739">
    <clipPath
       id="a">
      <rect
         transform="translate(9,9)"
         width="13.5"
         height="13.5"
         fill="#ffffff"
         id="rect3736"
         x="0"
         y="0" />
    </clipPath>
  </defs>
</svg>
